<svg xmlns="http://www.w3.org/2000/svg" width="38" height="32" viewBox="0 0 38 32" fill="none"><path d="M3.50685 0.0800656C2.63339 0.257993 1.68714 0.799863 1.11292 1.43878C0.603402 2.00492 0.166671 2.98352 0.0696201 3.75993C0.0130069 4.18857 -0.0112559 7.9574 0.00491929 15.0826C0.0291821 25.1921 0.0372697 25.7825 0.182847 26.203C0.668103 27.675 1.67905 28.6778 3.14291 29.1631C3.56347 29.3006 4.10534 29.3168 11.6753 29.341C17.3205 29.3572 19.8519 29.341 20.0622 29.2763C20.7982 29.0661 20.9276 28.0955 20.2644 27.7235C20.1269 27.6426 18.2587 27.6103 11.8371 27.5779L3.58773 27.5375L3.18335 27.3191C2.42311 26.9147 1.88124 26.1626 1.79228 25.3862L1.74375 24.9899H10.9798H20.2239L20.4585 24.7554C20.8386 24.3672 20.7577 23.704 20.2886 23.429C20.0784 23.2996 19.302 23.2915 10.9151 23.2915H1.76802V13.5459C1.76802 3.9055 1.76802 3.80036 1.93786 3.36363C2.14814 2.7975 2.68192 2.23946 3.28849 1.95639L3.74948 1.73803H18.0645C31.7407 1.73803 32.3958 1.74611 32.8083 1.8836C33.3744 2.08579 34.0376 2.70045 34.2883 3.25041C34.4743 3.66288 34.4824 3.78419 34.5228 5.8627C34.5552 7.77138 34.5794 8.07871 34.7088 8.27281C34.9838 8.69337 35.6794 8.69337 36.0433 8.2809L36.2293 8.07062L36.2051 5.70904C36.1808 3.50921 36.1646 3.3232 36.0029 2.88647C35.5338 1.64097 34.5552 0.678549 33.3016 0.225643L32.784 0.0396276L18.3072 0.03154C10.349 0.0234524 3.68478 0.0477152 3.50685 0.0800656Z" fill="#44DDE7"></path><path d="M13.5923 6.31537C13.2041 6.4286 12.735 6.93812 12.6137 7.36676C12.5409 7.63365 12.5247 9.05707 12.5409 13.1575L12.5652 18.5843L12.8078 18.932C13.1555 19.4254 13.657 19.6761 14.2393 19.6357C14.7488 19.5952 14.1908 19.9026 20.3293 16.3521C22.2865 15.2279 23.9768 14.2251 24.0738 14.128C24.3892 13.8368 24.5752 13.3839 24.5752 12.9391C24.5752 12.4943 24.3892 12.0414 24.0738 11.7502C23.9202 11.6047 20.8549 9.81731 15.7355 6.87342C14.6275 6.24259 14.1988 6.12936 13.5923 6.31537ZM18.9382 10.715C21.0167 11.912 22.7151 12.9149 22.7151 12.9391C22.7151 12.9715 17.2802 16.1418 14.6922 17.6138L14.2231 17.8807V12.9391V7.9976L14.6922 8.26449C14.951 8.41006 16.8597 9.50998 18.9382 10.715Z" fill="#44DDE7"></path><path d="M28.7645 8.88716L28.4976 9.1217L28.4734 14.9448L28.4572 20.7598L27.8264 20.7193C25.4486 20.5899 23.1437 22.3288 22.6018 24.6661C22.44 25.3374 22.44 26.4211 22.6018 27.0924C22.9334 28.5077 23.9929 29.8421 25.303 30.4811C26.1927 30.9178 26.9934 31.0876 27.8911 31.031C29.7998 30.9097 31.393 29.8664 32.2422 28.1761C32.7841 27.1085 32.7679 27.2379 32.8003 21.7303C32.8164 18.9886 32.8407 16.7402 32.8488 16.7402C32.8569 16.7402 33.795 17.0476 34.9273 17.4277C36.0596 17.8078 37.0543 18.1151 37.1352 18.1151C37.2161 18.1151 37.394 18.0585 37.5234 17.9857C37.9763 17.7593 38.0006 17.5732 38.0006 14.7992C38.0006 12.1303 37.9682 11.8391 37.6124 11.6531C37.119 11.3862 29.541 8.65262 29.3064 8.65262C29.1123 8.65262 28.9425 8.7254 28.7645 8.88716ZM33.2289 11.8472C34.8464 12.4457 36.1809 12.939 36.1971 12.939C36.2132 12.939 36.2213 13.6265 36.2213 14.4757C36.2213 15.3168 36.1971 16.0123 36.1647 16.0123C36.1324 16.0123 35.1538 15.6969 33.9972 15.3087L31.8944 14.6132L31.5952 14.7507C31.021 15.0257 31.0452 14.7911 31.0452 20.9215C31.0452 26.8902 31.0452 26.8416 30.5923 27.6261C30.3416 28.0548 29.6299 28.7261 29.1932 28.9525C28.9991 29.0496 28.5866 29.179 28.2712 29.2437C27.1551 29.4782 26.039 29.1304 25.1979 28.2974C23.2164 26.316 24.2921 22.9919 27.0823 22.4824C27.6727 22.3773 28.1014 22.4177 28.8616 22.6604C29.3549 22.814 29.4035 22.814 29.6946 22.7008C30.2527 22.4663 30.2365 22.6765 30.2365 16.3763C30.2365 13.2868 30.2446 10.7554 30.2607 10.7554C30.2769 10.7554 31.6114 11.2487 33.2289 11.8472Z" fill="#44DDE7"></path></svg>