<svg xmlns="http://www.w3.org/2000/svg" width="25" height="46" viewBox="0 0 25 46" fill="none"><path d="M7.50927 0.144005C7.13156 0.305882 6.82579 0.584669 6.62794 0.944394C6.51103 1.16023 6.46606 1.55593 6.43009 2.78799L6.38513 4.36179L4.13684 4.40675C1.9695 4.45172 1.87057 4.46071 1.45689 4.67655C0.935286 4.93735 0.449657 5.44996 0.188856 6.01652L0 6.43021V25.2259V44.0215L0.215835 44.4442C0.485629 44.9928 1.01622 45.5234 1.55581 45.7932L1.97849 46H12.1857H22.3929L22.8156 45.7932C23.3552 45.5234 23.8948 44.9928 24.1556 44.4442C24.3444 44.0665 24.3714 43.8776 24.3984 42.5376C24.4254 41.1977 24.4164 41.0268 24.2635 40.8469C24.0297 40.5592 23.607 40.5052 23.3372 40.721C23.1213 40.9009 23.1124 40.9459 23.0674 42.3398C23.0224 43.9136 22.9775 44.0395 22.4019 44.4622C22.1591 44.651 22.1141 44.651 12.1857 44.651C2.25728 44.651 2.21231 44.651 1.9695 44.4622C1.8346 44.3632 1.63675 44.1654 1.53783 44.0305C1.34897 43.7877 1.34897 43.7607 1.32199 29.8034L1.304 15.828H2.70693C3.47135 15.828 4.17281 15.7921 4.26275 15.7381C4.35268 15.6931 4.47858 15.5403 4.53254 15.3874C4.62247 15.1715 4.62247 15.0816 4.50556 14.8568C4.43362 14.7129 4.29872 14.569 4.22677 14.533C4.14584 14.506 3.45336 14.4791 2.68895 14.4791H1.304V10.657C1.304 6.97879 1.313 6.81691 1.48387 6.46618C1.59178 6.26833 1.79863 6.02552 1.9605 5.93558C2.23929 5.76471 2.48211 5.75572 12.1857 5.75572C21.8893 5.75572 22.1321 5.76471 22.4109 5.93558C22.5728 6.02552 22.7796 6.26833 22.8875 6.46618C23.0584 6.81691 23.0674 6.97879 23.0674 10.657V14.4791H14.9826C6.9427 14.4791 6.90673 14.4791 6.66391 14.6679C6.34016 14.9197 6.34016 15.3874 6.66391 15.6392C6.90673 15.828 6.9427 15.828 14.9826 15.828H23.0674V27.0605C23.0674 38.2839 23.0674 38.2839 23.2562 38.5267C23.4991 38.8325 23.8948 38.8415 24.2005 38.5357L24.4164 38.3199L24.3984 22.375L24.3714 6.43021L24.1825 6.01652C23.9217 5.44996 23.4361 4.93735 22.9145 4.67655C22.5008 4.46071 22.4019 4.45172 20.2346 4.40675L17.9863 4.36179L17.9413 2.78799C17.8963 1.11526 17.8424 0.899429 17.3837 0.476751C16.8801 0.000115325 16.8441 0.000115325 12.1677 0.000115325C8.48952 0.00910846 7.77906 0.0270947 7.50927 0.144005ZM16.4844 1.457C16.5564 1.52895 16.5923 1.99659 16.5923 2.98584V4.40675H12.1857H7.77906V2.98584C7.77906 1.99659 7.81503 1.52895 7.88698 1.457C8.03986 1.30412 16.3315 1.30412 16.4844 1.457Z" fill="#44DDE7"></path><path d="M11.8083 7.47317C11.6015 7.59008 11.4666 8.10269 11.4666 8.74121V9.26281H10.7471C9.90179 9.26281 9.66797 9.4067 9.66797 9.9283C9.66797 10.4229 9.98273 10.6118 10.7921 10.6118H11.4396L11.4846 11.3492C11.5206 12.0057 11.5565 12.1046 11.7724 12.2935C11.9073 12.4104 12.0961 12.5003 12.186 12.5003C12.276 12.5003 12.4648 12.4104 12.5997 12.2935C12.8156 12.1046 12.8515 12.0057 12.8875 11.3492L12.9325 10.6118H13.58C14.3894 10.6118 14.7041 10.4229 14.7041 9.9283C14.7041 9.4067 14.4703 9.26281 13.6249 9.26281H12.9055V8.74121C12.9055 8.08471 12.7616 7.58109 12.5458 7.46418C12.3299 7.34727 12.0062 7.35626 11.8083 7.47317Z" fill="#44DDE7"></path><path d="M14.9729 18.9672C14.5502 19.1021 14.2085 19.3179 13.8757 19.6686C12.9854 20.6039 5.93477 29.0485 5.79088 29.3632C5.44915 30.1007 5.61102 31.0629 6.18658 31.7104C6.80711 32.4119 6.8161 32.4119 9.38814 32.4659L11.6724 32.5108L9.39713 35.2088C8.14709 36.6926 7.01395 38.0686 6.88805 38.2574C6.6812 38.5632 6.65423 38.7071 6.65423 39.3456C6.65423 40.0021 6.6812 40.119 6.92402 40.5147C7.68844 41.7558 9.31619 41.9806 10.3504 40.9824C10.9889 40.3618 18.3813 31.5486 18.5431 31.2068C18.759 30.7572 18.795 30.0377 18.6331 29.5521C18.4352 28.9675 18.1025 28.5808 17.5629 28.2751L17.0863 28.0143L14.9189 27.9693L12.7606 27.9243L15.0808 25.1814C16.3488 23.6706 17.464 22.2946 17.5539 22.1238C17.9046 21.3953 17.7787 20.3161 17.2481 19.6866C16.7445 19.0841 15.6564 18.7423 14.9729 18.9672ZM15.9621 20.3701C16.2859 20.541 16.4118 20.7568 16.4118 21.1705C16.4118 21.5212 16.5467 21.3503 12.3019 26.3775C10.4403 28.5718 10.3594 28.7337 10.7731 29.1204C10.9709 29.3003 11.0609 29.3093 13.9207 29.3362L16.8794 29.3632L17.1402 29.66C17.464 30.0197 17.482 30.4424 17.2032 30.8111C17.0863 30.955 15.2876 33.1044 13.2012 35.5775C10.6742 38.5722 9.3072 40.128 9.13633 40.2C8.56976 40.4338 7.95823 39.9931 7.95823 39.3546C7.95823 38.9859 7.76937 39.2287 11.2677 35.0829C13.7588 32.1241 13.9027 31.9263 13.7498 31.5216C13.6059 31.1529 13.3181 31.1169 10.3414 31.1169H7.49059L7.22979 30.8561C6.92402 30.5503 6.87905 30.1097 7.12187 29.7679C7.58052 29.1024 15.0268 20.3881 15.1887 20.3251C15.4765 20.2082 15.6743 20.2172 15.9621 20.3701Z" fill="#44DDE7"></path></svg>