<svg xmlns="http://www.w3.org/2000/svg" width="36" height="38" viewBox="0 0 36 38" fill="none"><path d="M17.8493 7.16241C9.68013 6.74528 4.57071 11.7429 2.67578 13.9549C-3.00901 20.5908 1.52043 33.2446 5.59055 35.6995C7.95825 37.1276 13.6323 39.7946 19.0675 29.9728C24.3462 20.4338 34.873 26.0337 33.9421 19.7611C32.8734 12.5595 25.9704 7.57708 17.8493 7.16241Z" fill="white"></path><path d="M16.5012 1.06705C16.1197 1.33173 16.2287 1.50301 17.848 3.12228C18.681 3.95527 19.3661 4.65592 19.3661 4.67928C19.3661 4.70263 19.1403 4.81941 18.8601 4.94397C17.4198 5.56677 16.1197 6.81236 15.4035 8.23702C15.1233 8.80532 14.8119 9.82515 14.734 10.4635L14.6795 10.9073H13.9633C12.7177 10.9073 11.9859 11.2576 11.5655 12.0672C11.3631 12.4487 11.3475 12.5499 11.3475 13.3751V14.2704L10.499 14.2392C9.557 14.2159 9.37794 14.138 9.0354 13.632C8.87192 13.3985 8.85635 13.2895 8.85635 12.3008C8.85635 11.3199 8.84078 11.2031 8.70065 11.063C8.51381 10.8761 8.40482 10.8683 8.16348 11.0318C7.99222 11.1564 7.98443 11.1797 8.01557 12.3786C8.04671 13.7254 8.11677 13.959 8.63837 14.4806C9.07433 14.9165 9.47915 15.0567 10.4756 15.0956L11.3475 15.1345V17.9994V20.872H9.84504C8.21798 20.872 8 20.9188 8 21.2924C8 21.6895 8.1557 21.7284 9.80612 21.7284H11.332L11.3709 23.9627C11.402 26.1036 11.4565 26.6485 11.6979 27.4192C11.7446 27.5593 11.6823 27.5671 10.6702 27.5671C9.70491 27.5671 9.557 27.5905 9.19889 27.754C8.98869 27.8552 8.68508 28.0809 8.52159 28.2678C8.09342 28.7738 8 29.1397 8 30.3697C8 31.3039 8.01557 31.4518 8.14013 31.5608C8.34254 31.7399 8.59166 31.7243 8.73179 31.5219C8.83299 31.3818 8.85635 31.1171 8.85635 30.2841C8.85635 29.311 8.87192 29.202 9.0354 28.9606C9.12882 28.8127 9.36237 28.6181 9.557 28.5169C9.86061 28.3612 10.0163 28.3456 10.9583 28.3456H12.0093L12.3207 29.0307C13.3794 31.3351 15.4658 33.328 17.8402 34.27C21.1878 35.5934 24.8934 35.0952 27.7661 32.9388C29.0272 31.989 30.3585 30.3464 31.0046 28.9451L31.2849 28.3456H32.3904C33.3868 28.3456 33.5347 28.3612 33.8461 28.5247C34.0408 28.6181 34.2743 28.8127 34.3677 28.9606C34.5312 29.202 34.5468 29.311 34.5468 30.2841C34.5468 31.1171 34.5702 31.3818 34.6714 31.5219C34.8115 31.7321 35.0995 31.7477 35.2708 31.553C35.4576 31.3506 35.4576 29.4745 35.2786 28.9529C35.1151 28.4624 34.6714 27.972 34.2043 27.754C33.8461 27.5905 33.6982 27.5671 32.7018 27.5671C32.0867 27.5671 31.5885 27.5438 31.5885 27.5049C31.5885 27.4737 31.643 27.2557 31.7053 27.0222C31.97 26.0491 32.0556 25.2005 32.0556 23.4567V21.7284H33.597C34.9983 21.7284 35.154 21.7128 35.2708 21.5883C35.4499 21.3859 35.4343 21.1367 35.2319 20.9966C35.0917 20.8954 34.7881 20.872 33.5581 20.872H32.0556V17.9994V15.1345L32.9353 15.0956C33.9318 15.0567 34.2743 14.9399 34.7259 14.5039C35.2942 13.959 35.3564 13.7488 35.3876 12.3786C35.4187 11.1797 35.4109 11.1564 35.2397 11.0318C34.9983 10.8683 34.8893 10.8761 34.7025 11.063C34.5624 11.2031 34.5468 11.3199 34.5468 12.3008C34.5468 13.2895 34.5312 13.3985 34.3755 13.632C34.0252 14.138 33.8461 14.2159 32.912 14.2392L32.0712 14.2704L32.0478 13.305C32.0167 12.4176 32.0011 12.3163 31.7987 11.9738C31.3627 11.2342 30.6387 10.9073 29.4476 10.9073H28.7392L28.6458 10.3078C28.5212 9.51375 28.1787 8.5562 27.7661 7.81663C27.1277 6.68002 25.6797 5.41107 24.4263 4.8739C24.2317 4.79605 24.0604 4.7182 24.0371 4.70263C24.0215 4.68706 24.6988 3.97863 25.5474 3.13007C26.9175 1.75991 27.081 1.56528 27.0576 1.36288C27.0421 1.21496 26.9642 1.09819 26.8241 1.02034L26.6061 0.903561L24.8389 2.67075L23.0639 4.43016L22.6747 4.36788C22.4645 4.32895 22.0208 4.29781 21.7016 4.29781C21.3824 4.29781 20.9464 4.32895 20.7284 4.36788L20.3392 4.43016L18.5876 2.68632C17.6222 1.72877 16.797 0.942486 16.7581 0.942486C16.7114 0.942486 16.5946 0.996983 16.5012 1.06705ZM23.4532 5.37993C25.2827 5.9638 26.6995 7.24054 27.4158 8.94545C27.6493 9.49818 27.8517 10.2845 27.8517 10.6504V10.9073H21.7016H15.5514V10.6504C15.5514 10.2845 15.7538 9.49818 15.9874 8.94545C16.7815 7.0537 18.4942 5.66019 20.5416 5.22423C21.1644 5.09188 22.8382 5.1853 23.4532 5.37993ZM16.3144 16.3723L16.291 20.9732L15.9796 21.0822C15.2167 21.3314 14.6484 22.1644 14.6639 23.0129C14.6717 23.5734 14.8196 23.9393 15.2011 24.3597C16.0185 25.2706 17.4198 25.2706 18.2373 24.3597C18.6187 23.9393 18.7666 23.5734 18.7744 23.0129C18.79 22.1644 18.2217 21.3314 17.4588 21.0822L17.1474 20.9732L17.124 16.3723L17.1084 11.7636H23.6867C30.086 11.7636 30.2806 11.7714 30.5687 11.9193C30.7399 12.0049 30.9579 12.1996 31.0513 12.3631L31.2382 12.6589L31.2615 18.3808C31.2771 22.1176 31.2537 24.4298 31.1993 25.0448C31.028 26.9988 30.3196 28.8672 29.1985 30.3386L28.8248 30.8213L28.7859 26.1814C28.747 21.5416 28.747 21.5338 28.5679 21.1445C28.4434 20.872 28.0385 20.4049 27.1511 19.5097L25.9055 18.2641L26.2714 17.9916C26.4738 17.8437 26.7462 17.5479 26.8786 17.3377C27.0732 17.0185 27.1199 16.855 27.1355 16.3568C27.1744 15.6639 26.9954 15.1968 26.5438 14.7375C25.4695 13.6632 23.5388 14.138 23.0562 15.5938C22.6747 16.7616 23.4221 18.0772 24.6287 18.3341C24.9401 18.4042 27.6337 21.09 27.8128 21.5104C27.914 21.7595 27.9296 22.4602 27.9296 26.7808V31.7555L27.4235 32.1603C26.5594 32.8531 25.2827 33.5071 24.2161 33.8263L23.8035 33.943L23.8113 31.1249V28.3067L24.2784 28.0809C25.5551 27.4815 25.8276 25.8467 24.8156 24.8424C24.0371 24.0561 22.8615 24.0172 22.013 24.7412C21.0788 25.543 21.0788 27.0222 22.0208 27.824C22.2076 27.9875 22.4879 28.1588 22.6513 28.2055L22.9472 28.2911V31.1949V34.0987L22.5034 34.1532C21.8728 34.2311 20.456 34.1299 19.6775 33.9586C17.8947 33.5538 16.4078 32.7597 15.0921 31.5063C13.7064 30.1829 12.7722 28.4935 12.344 26.5551L12.165 25.7377V19.1983C12.165 12.7367 12.165 12.6589 12.3285 12.3864C12.4141 12.2385 12.6243 12.0361 12.7956 11.9427C13.0836 11.7792 13.1848 11.7636 14.7184 11.7636H16.3299L16.3144 16.3723ZM25.5941 15.2279C26.0767 15.4771 26.3648 16.1232 26.2246 16.6448C26.1157 17.0185 25.7108 17.4311 25.3449 17.5323C24.7922 17.6802 24.0993 17.3454 23.8814 16.8239C23.749 16.5047 23.8191 15.8819 24.0215 15.6016C24.3407 15.1501 25.0958 14.971 25.5941 15.2279ZM17.2096 21.8374C18.0193 22.1721 18.2061 23.1998 17.5755 23.8303C17.0617 24.3441 16.3611 24.3519 15.855 23.8381C14.8897 22.8806 15.9563 21.308 17.2096 21.8374ZM23.9281 25.2005C24.294 25.3718 24.5197 25.7221 24.5664 26.1736C24.6287 26.8276 24.2862 27.318 23.6478 27.4893C22.7915 27.7228 21.9351 26.8743 22.1609 26.0335C22.3867 25.2161 23.1807 24.8424 23.9281 25.2005Z" fill="#FF5F55"></path><path d="M19.5765 6.01182C18.977 6.15195 18.4788 6.54898 18.1752 7.12507C17.9416 7.5766 17.9416 8.47966 18.1752 8.93119C18.5644 9.65519 19.2417 10.0834 20.028 10.0756C20.5885 10.0756 20.9544 9.93545 21.3826 9.5462L21.7018 9.25816L22.0209 9.5462C22.4491 9.93545 22.815 10.0756 23.3755 10.0756C24.1618 10.0834 24.8391 9.65519 25.2284 8.93119C25.4619 8.47966 25.4619 7.5766 25.2284 7.12507C24.8391 6.40107 24.1618 5.97289 23.3755 5.98068C22.815 5.98068 22.4491 6.12081 22.0209 6.51006L21.7018 6.7981L21.3826 6.51006C20.861 6.04296 20.1915 5.85612 19.5765 6.01182ZM20.6041 6.93823C21.4916 7.38197 21.476 8.67428 20.5885 9.12581C19.8022 9.53063 18.8213 8.93897 18.8213 8.05148C18.8213 7.09393 19.7633 6.51006 20.6041 6.93823ZM24.0217 6.99273C24.769 7.54546 24.769 8.5108 24.0373 9.05575C23.5312 9.42943 22.706 9.26594 22.3479 8.71321C21.7718 7.85686 22.4258 6.72025 23.4378 6.80589C23.648 6.82146 23.9049 6.90709 24.0217 6.99273Z" fill="#FF5F55"></path></svg>