<svg xmlns="http://www.w3.org/2000/svg" width="40" height="40" viewBox="0 0 40 40" fill="none"><path d="M1.37311 0.156532C0.513731 0.49247 -0.0487692 1.39091 0.0215433 2.30497C0.0762308 3.08622 0.380918 3.50809 1.64654 4.55497C2.00592 4.85966 2.09967 4.99247 2.21686 5.36747C2.34967 5.80497 2.45904 5.92216 5.55279 9.02372L8.74811 12.2347L8.43561 12.5393C7.84186 13.1175 7.64654 13.9065 7.92779 14.594C8.07623 14.9456 15.2325 22.1409 15.795 22.5081C16.2872 22.8284 16.7559 22.9612 17.67 23.0472C18.5606 23.1331 18.834 23.2347 19.4356 23.7034C20.3497 24.4143 21.1153 24.3597 21.9669 23.5315L22.334 23.1722L23.3106 24.1253C24.8028 25.5784 26.3262 26.6331 27.6856 27.1565C28.0606 27.305 28.2794 27.4222 28.2715 27.5003C28.2715 27.7112 27.9903 29.5393 27.9512 29.5706C27.9356 29.5862 27.7481 29.555 27.545 29.4925C26.2481 29.1018 24.0372 28.9925 22.7169 29.2503C20.7637 29.6253 18.9747 30.5628 17.6153 31.9065C16.5762 32.9378 16.0294 34.0862 15.959 35.3909C15.8028 38.18 18.0059 40.1409 21.0919 39.9768C23.8419 39.8206 26.0372 38.1253 27.5294 34.9925C28.0372 33.93 28.4356 32.8206 28.4356 32.469C28.4356 32.1487 28.209 31.93 27.8809 31.93C27.545 31.93 27.3965 32.1253 27.1153 32.969C25.7794 36.8597 23.3653 38.9847 20.4747 38.805C18.8887 38.7112 17.8106 38.0237 17.3262 36.8128C17.084 36.1956 17.084 35.0862 17.3262 34.4143C17.8731 32.9222 19.6856 31.3753 21.6778 30.7112C22.8262 30.3284 23.6934 30.2112 24.92 30.2659C26.5059 30.3362 27.8028 30.6722 29.334 31.3987C31.3809 32.3753 32.1309 32.9847 35.9434 36.7737C39.4512 40.2659 39.3965 40.219 39.8028 39.805C40.2247 39.3909 40.2715 39.4534 36.7403 35.93C34.9434 34.1409 33.2247 32.4847 32.92 32.2425C32.0606 31.5706 31.0684 30.9456 30.0294 30.43C29.5137 30.1722 29.0997 29.9222 29.1153 29.8753C29.1309 29.8362 29.2012 29.344 29.2794 28.7815L29.42 27.7737L29.6544 27.7893C31.7559 27.9612 32.795 27.8831 34.1465 27.4534C35.9512 26.8909 37.8731 25.4768 38.8653 23.9847C40.1387 22.0706 40.334 20.1018 39.4434 18.2815C38.3028 15.9612 35.4747 15.2581 33.0372 16.6878C31.7247 17.4612 30.4512 19.219 29.6465 21.3597C29.3497 22.1643 28.7481 24.3987 28.7481 24.7112C28.7481 25.1253 29.3575 25.3987 29.709 25.1409C29.795 25.0706 29.9669 24.5472 30.1856 23.6643C30.7481 21.4222 31.3887 20.0237 32.4356 18.7659C32.9434 18.1487 33.7325 17.5784 34.4122 17.3284C35.084 17.0862 36.1934 17.0862 36.8106 17.3284C38.1075 17.8518 38.795 19.0159 38.7794 20.7034C38.7715 21.6487 38.6387 22.1018 38.1075 23.0081C37.6622 23.7737 36.3262 25.0862 35.5059 25.555C34.1934 26.3206 33.1622 26.6331 31.7012 26.6956C28.9669 26.8206 26.7169 25.805 24.0762 23.2425L23.1622 22.3597L23.5215 21.9768C24.3575 21.1097 24.4122 20.3518 23.7012 19.4378C23.2325 18.8362 23.1309 18.5706 23.045 17.6722C22.959 16.7659 22.8653 16.4065 22.5997 15.9378C22.3653 15.5237 18.0997 11.1956 17.8184 11.0862C17.4512 10.9378 17.0294 11.2737 17.0294 11.6956C17.0294 11.7659 18.0294 12.8284 19.2481 14.055C20.6387 15.4612 21.5294 16.4143 21.6309 16.6253C21.7403 16.844 21.8262 17.219 21.8731 17.7581C21.9825 18.8753 22.1153 19.2737 22.6153 19.9378C22.959 20.3909 23.0372 20.5472 23.0059 20.7034C22.9434 20.9612 20.959 22.9456 20.7012 23.0081C20.545 23.0393 20.3887 22.9612 19.9356 22.6175C19.2715 22.1175 18.8731 21.9847 17.7559 21.8753C17.2169 21.8284 16.8419 21.7425 16.6231 21.6331C16.3965 21.5237 15.0528 20.2347 12.6387 17.8206C9.21686 14.4143 8.98248 14.1643 8.98248 13.9065C8.98248 13.6565 9.15436 13.469 11.3106 11.3128C13.4356 9.17997 13.6544 8.98466 13.8965 8.98466C14.1231 8.98466 14.2637 9.08622 14.959 9.76591C15.834 10.6253 16.0215 10.7034 16.3653 10.3518C16.7169 10.0081 16.6387 9.82841 15.7637 8.92997C14.8653 8.02372 14.5215 7.81278 13.9044 7.81278C13.3887 7.81278 12.9512 8.00809 12.5372 8.43778L12.2325 8.75028L10.1934 6.71903C8.66998 5.20341 8.10748 4.68778 7.96686 4.68778C7.83404 4.68778 7.45123 5.01591 6.54498 5.91434L5.31061 7.14091L4.86529 6.69559L4.41998 6.25028L5.65436 5.00809C7.09967 3.55497 7.08404 3.60184 6.32623 2.87528C5.99811 2.56278 5.73248 2.38309 5.39654 2.25809C4.97467 2.10966 4.85748 2.01591 4.27936 1.32841C3.91998 0.906532 3.52154 0.484657 3.38092 0.390907C2.78717 -0.0153427 2.03717 -0.10128 1.37311 0.156532ZM2.62311 1.32059C2.75592 1.39872 3.13873 1.79716 3.48248 2.19559C4.23248 3.08622 4.20904 3.07059 4.86529 3.32841C5.15436 3.43778 5.38873 3.55497 5.38873 3.58622C5.38873 3.60966 4.98248 4.03934 4.48248 4.53153C3.46686 5.54716 3.48248 5.53934 3.24029 4.73466C3.09186 4.24247 3.08404 4.23466 2.19342 3.48466C1.17779 2.62528 0.998106 2.27372 1.28717 1.71122C1.54498 1.21903 2.16217 1.03934 2.62311 1.32059ZM8.41998 6.58622L8.82623 6.99247L7.90436 7.91434L6.99029 8.82841L6.56061 8.39872L6.13873 7.96903L7.02936 7.07059C7.52154 6.57841 7.94342 6.17216 7.96686 6.17216C7.99029 6.17216 8.19342 6.35966 8.41998 6.58622ZM10.4903 10.4847L9.56842 11.4065L8.69342 10.5315L7.81061 9.64872L8.72467 8.73466L9.64654 7.81278L10.5215 8.68778L11.4044 9.57059L10.4903 10.4847Z" fill="#44DDE7"></path></svg>