<svg xmlns="http://www.w3.org/2000/svg" width="21" height="21" viewBox="0 0 21 21" fill="none"><path d="M11.3632 0.0738811C10.9613 0.274858 10.9244 0.844975 11.3017 1.09107C11.3591 1.12798 11.638 1.21001 11.9292 1.27564C12.807 1.46841 13.2417 1.61197 14.0292 1.9688C15.1572 2.4815 16.158 3.19107 17.089 4.14673C18.4343 5.52896 19.3162 7.18599 19.7263 9.10962C19.8371 9.63052 19.8658 9.69615 20.0257 9.81509C20.2841 10.0038 20.5999 9.98736 20.8091 9.76998C20.9978 9.5731 21.0101 9.44595 20.8953 8.88814C20.0749 4.8522 17.0193 1.51353 13.0654 0.332279C12.6142 0.196928 11.7447 5.24521e-05 11.6011 5.24521e-05C11.5478 5.24521e-05 11.4412 0.0328655 11.3632 0.0738811Z" fill="#FF5F55"></path><path d="M3.44208 1.30844C2.91708 1.4766 2.47821 1.84164 1.24774 3.14594C0.365906 4.07699 0.128015 4.54867 0.0459837 5.48793C-0.0729616 6.82504 0.37821 8.51898 1.37489 10.4795C1.79325 11.308 1.98192 11.6321 2.51512 12.4278C4.52489 15.4383 7.1622 17.8377 10.2753 19.4948C12.039 20.434 13.5319 20.9139 14.8895 20.9836C15.8493 21.037 16.7024 20.7662 17.3423 20.2125C17.4202 20.1469 17.8919 19.6752 18.3923 19.1584C19.2208 18.3094 19.3151 18.1946 19.4751 17.8787C19.7827 17.2635 19.7868 16.7098 19.4792 16.0782C19.311 15.7377 19.27 15.6926 17.7852 14.2078C16.3456 12.7641 16.2472 12.6739 15.9518 12.5344C15.3243 12.2391 14.6804 12.2678 14.0692 12.6205C13.9667 12.6821 13.5032 13.1045 13.0356 13.568L12.1866 14.4047L11.7806 14.1873C9.97587 13.2358 7.60516 10.8487 6.72743 9.1014L6.56747 8.78968L7.35497 7.99398C8.19579 7.14496 8.40087 6.89066 8.53622 6.50511C8.71669 5.98011 8.67977 5.47972 8.42137 4.95062C8.28602 4.67992 8.14657 4.52816 6.75204 3.13363C5.16473 1.54633 5.03759 1.43968 4.5536 1.29613C4.25829 1.21 3.73329 1.2141 3.44208 1.30844ZM4.36083 2.50199C4.61512 2.62094 7.26884 5.28695 7.37958 5.53714C7.59286 6.00882 7.50262 6.16468 6.3788 7.28031C5.8743 7.7766 5.43544 8.24418 5.39442 8.32211C5.27958 8.55179 5.3288 8.96605 5.51747 9.368C6.04657 10.4918 6.89969 11.6239 8.19989 12.92C9.2704 13.9905 10.3696 14.8149 11.4811 15.385C11.9446 15.627 12.0061 15.6475 12.2399 15.6434C12.3999 15.6434 12.5434 15.6147 12.6337 15.5696C12.7116 15.5286 13.1915 15.0815 13.7001 14.5811C14.2087 14.0807 14.6845 13.6377 14.7624 13.5967C14.9675 13.4942 15.3284 13.527 15.5335 13.6705C15.8247 13.8715 18.3184 16.4145 18.4169 16.6073C18.5358 16.8452 18.5358 17.1159 18.4169 17.3537C18.3266 17.526 17.0059 18.9123 16.5507 19.3061C15.8944 19.8803 14.9716 19.95 13.454 19.5399C12.3466 19.2405 10.6362 18.412 9.22938 17.4932C6.23524 15.5327 3.4954 12.3621 2.10907 9.24906C1.21903 7.2475 1.00165 5.71351 1.46923 4.75785C1.55126 4.58558 1.80145 4.30668 2.52333 3.5766C3.11805 2.96957 3.53641 2.57992 3.65126 2.5225C3.88094 2.39945 4.13114 2.39535 4.36083 2.50199Z" fill="#FF5F55"></path><path d="M11.164 3.89658C10.8851 4.06884 10.7866 4.43798 10.9507 4.70459C11.0655 4.89326 11.164 4.94248 11.6603 5.06552C12.7964 5.34443 13.7111 5.86533 14.4863 6.68154C15.2204 7.44853 15.7167 8.37548 15.9341 9.37216C16.0202 9.75771 16.0777 9.88896 16.2253 10.0038C16.5575 10.2663 17.0907 10.0735 17.1646 9.66337C17.2261 9.35166 16.9185 8.28115 16.5616 7.57158C15.647 5.72587 13.99 4.39697 11.9966 3.91298C11.5003 3.79404 11.3404 3.78994 11.164 3.89658Z" fill="#FF5F55"></path></svg>