<svg xmlns="http://www.w3.org/2000/svg" width="37" height="37" viewBox="0 0 37 37" fill="none"><path d="M0.455273 0.397863C0.23125 0.506261 0 0.867589 0 1.10607C0 1.33732 0.20957 1.72032 0.404688 1.8504C0.585352 1.96603 0.823828 1.98771 2.49316 2.01661C4.26367 2.05275 4.38652 2.05997 4.67559 2.21896C5.0875 2.43575 5.45606 2.81876 5.6584 3.23068C5.75234 3.41857 7.0459 7.24142 8.52734 11.7291L11.2301 19.8807L11.1 20.2203C10.5725 21.5934 10.5941 21.5211 10.5869 22.3955C10.5869 23.0748 10.6158 23.3133 10.7531 23.7108C11.2012 25.0115 12.2707 25.9871 13.6221 26.334C14.2508 26.493 31.1898 26.5002 31.5006 26.3412C32.0932 26.0305 32.0859 25.1777 31.4861 24.8309C31.3633 24.7658 29.3688 24.7369 22.583 24.708L13.8389 24.6719L13.4486 24.4551C13.0512 24.2383 12.6971 23.8553 12.4586 23.4072C12.3646 23.2193 12.3285 22.9881 12.3213 22.5039C12.3213 21.9475 12.3502 21.7813 12.5236 21.3766C12.726 20.9068 12.7404 20.8924 13.0295 20.849C13.1957 20.8274 17.2498 20.401 22.041 19.9024C26.8322 19.4037 30.9297 18.9629 31.1465 18.9195C32.0137 18.7533 32.917 18.2981 33.5602 17.7055C34.0299 17.2719 34.5141 16.4986 34.7598 15.7832C35.0272 15.01 37.0145 6.49708 36.9711 6.31642C36.9205 6.10685 36.6748 5.86114 36.4219 5.75997C36.3063 5.71661 31.0598 5.61544 22.2434 5.49259C14.5398 5.38419 8.23106 5.28302 8.20938 5.26134C8.19492 5.24689 8.01426 4.71212 7.80469 4.07618C7.26992 2.46466 7.07481 2.08165 6.46777 1.46739C5.91133 0.903722 5.20313 0.506261 4.49492 0.36173C4.27813 0.318371 3.36758 0.282238 2.39922 0.282238C0.990039 0.282238 0.643164 0.303917 0.455273 0.397863ZM23.6309 7.22696C29.8891 7.31368 35.0199 7.39318 35.0344 7.40763C35.0488 7.41485 34.6369 9.17091 34.1166 11.3172C33.1338 15.3496 32.982 15.8193 32.5195 16.318C32.151 16.7082 31.6307 17.019 31.1393 17.149C30.7346 17.2502 13.5426 19.0713 12.95 19.0713H12.726L11.6275 15.7254C11.0205 13.8899 10.1316 11.1727 9.64024 9.684L8.75137 6.98126L10.5002 7.02462C11.4613 7.05353 17.3727 7.14025 23.6309 7.22696Z" fill="#44DDE7"></path><path d="M10.9826 28.6537C9.59508 28.95 8.38102 30.1351 8.05582 31.5082C7.74508 32.8379 8.12086 34.1459 9.08922 35.1142C10.0793 36.1043 11.3656 36.4728 12.7097 36.1621C13.3818 36.0031 13.9816 35.649 14.5308 35.0998C15.3908 34.2398 15.7882 33.0764 15.622 31.9057C15.4414 30.641 14.632 29.5281 13.4757 28.9717C12.623 28.5525 11.8787 28.4586 10.9826 28.6537ZM12.7459 30.5182C13.5047 30.8867 13.9021 31.5588 13.9093 32.4404C13.9093 32.8668 13.8732 33.0474 13.7431 33.3076C13.483 33.799 13.0277 34.2254 12.5869 34.3916C10.8308 35.0492 9.16871 33.3871 9.82633 31.631C10.0359 31.0674 10.6068 30.5543 11.2716 30.3375C11.6041 30.2291 12.3339 30.3158 12.7459 30.5182Z" fill="#44DDE7"></path><path d="M27.3164 28.6537C26.5793 28.8127 25.9795 29.1451 25.4014 29.7232C24.6209 30.5037 24.2812 31.3131 24.2812 32.4043C24.2812 33.5027 24.6354 34.3699 25.4158 35.1432C26.9189 36.6463 29.3037 36.6463 30.8068 35.1432C31.5873 34.3699 31.9414 33.5172 31.9414 32.4477C31.9414 31.3059 31.6162 30.5182 30.8213 29.7232C30.2359 29.1379 29.6434 28.8127 28.8701 28.6465C28.2559 28.5164 27.9307 28.5164 27.3164 28.6537ZM28.993 30.4676C29.4266 30.6627 29.824 31.0746 30.048 31.5588C30.5178 32.585 30.0842 33.8063 29.0725 34.3193C28.5738 34.5795 27.6488 34.5795 27.1502 34.3193C25.965 33.7195 25.6326 32.267 26.4203 31.1252C26.9479 30.3664 28.0896 30.0701 28.993 30.4676Z" fill="#44DDE7"></path></svg>