<svg xmlns="http://www.w3.org/2000/svg" width="40" height="40" viewBox="0 0 40 40" fill="none"><path d="M30.0859 0.148674C29.7031 0.281487 29.4219 0.539299 27.0312 2.92992L24.3984 5.56274L24.1016 5.35961C23.5391 4.9768 22.9844 4.90649 22.3281 5.15649C21.9453 5.29711 21.2031 6.01586 13.3828 13.844C3.89844 23.344 4.625 22.5237 4.71094 23.5705C4.75781 24.2112 4.91406 24.4455 6.04688 25.6018L6.97656 26.5627L6.21875 27.344C5.33594 28.2502 5.15625 28.5784 5.15625 29.2971C5.15625 29.8987 5.3125 30.2737 5.76562 30.7815L6.08594 31.133L3.03906 34.1799C0.234375 36.9924 0 37.2502 0 37.4924C0 37.7346 0.117188 37.8752 1.02344 38.7971C2.14062 39.9221 2.36719 40.0705 2.71875 39.9299C2.83594 39.883 4.26562 38.508 5.89062 36.883L8.85156 33.9221L9.30469 34.2971C9.79688 34.7112 10.1484 34.844 10.7031 34.844C11.4062 34.844 11.6172 34.7268 12.5312 33.8284L13.3984 32.9846L14.4141 33.9768C14.9688 34.5159 15.5703 35.0315 15.7422 35.1174C15.9141 35.1955 16.2578 35.2815 16.5078 35.2971C17.4453 35.3674 16.8359 35.9221 26.1172 26.6487C30.75 22.0237 34.6094 18.133 34.6875 18.0002C35.0703 17.3909 35.0469 16.4924 34.6328 15.883L34.4375 15.6018L37.0625 12.9768C39.375 10.6643 39.7109 10.2971 39.8438 9.93773C40.0312 9.44555 40.0391 9.05492 39.875 8.54711C39.7578 8.20336 39.3594 7.78149 35.8672 4.27367C33.2266 1.62524 31.8906 0.336174 31.6641 0.226799C31.1875 -0.00757599 30.5938 -0.038826 30.0859 0.148674ZM34.75 5.01586C36.7812 7.04711 38.5 8.81273 38.5625 8.92992C38.6328 9.06273 38.6641 9.24242 38.6328 9.36742C38.6016 9.50805 37.7578 10.4065 36.0547 12.1096L33.5156 14.6487L33.0703 14.1955L32.6172 13.7502L34.5156 11.8518C36.8828 9.48461 36.8047 9.76586 35.4531 8.38305C34.4141 7.32836 34.1719 7.14867 33.8359 7.2268C33.6953 7.25805 32.9922 7.90648 31.7578 9.14086L29.8828 11.0159L29.4375 10.5705L28.9844 10.1174L30.8516 8.24242C32.0156 7.07836 32.7422 6.2893 32.7734 6.1643C32.8516 5.83617 32.6719 5.58617 31.6172 4.54711C30.2031 3.1643 30.4688 3.09399 28.0859 5.46899L26.2031 7.34399L25.7812 6.9143L25.3516 6.48461L27.9297 3.90649C30.3125 1.52367 30.5312 1.32836 30.7812 1.32836C31.0312 1.32836 31.3125 1.58617 34.75 5.01586ZM30.7812 5.58617L31.2109 6.01586L29.625 7.6018L28.0469 9.17992L27.6016 8.7268L27.1484 8.28148L28.7109 6.71899C29.5703 5.85961 30.2891 5.15649 30.3125 5.15649C30.3359 5.15649 30.5469 5.3518 30.7812 5.58617ZM28.4531 11.5393C31.2812 14.3674 33.6016 16.7502 33.6328 16.8518C33.6562 16.9534 33.625 17.133 33.5625 17.2502C33.5 17.3674 29.7266 21.1799 25.1797 25.719C17.3828 33.508 16.8984 33.9846 16.6406 33.9846C16.3828 33.9846 16.0547 33.6721 11.1953 28.8127C6.30469 23.9221 6.01562 23.6174 6.01562 23.3596C6.01562 23.1018 6.45312 22.6487 14.3516 14.758C18.9453 10.1721 22.75 6.40649 22.8125 6.38305C22.875 6.35961 23.0156 6.3518 23.125 6.37524C23.25 6.39867 25.1016 8.19555 28.4531 11.5393ZM34.4375 9.24242L34.8438 9.64867L33.2578 11.2346L31.6797 12.8127L31.25 12.383L30.8203 11.9534L32.3828 10.3909C33.2422 9.53148 33.9609 8.82836 33.9844 8.82836C34.0078 8.82836 34.2109 9.01586 34.4375 9.24242ZM11.7188 32.7737C10.6328 33.8674 10.8672 33.9534 8.46094 31.5471C6.03906 29.1252 6.125 29.3518 7.20312 28.2346L7.92188 27.4924L10.1875 29.758L12.4609 32.0315L11.7188 32.7737ZM7.5 32.5393L7.92969 32.969L5.21094 35.6877L2.5 38.3987L2.05469 37.9455L1.60156 37.5002L4.29688 34.8049C5.78125 33.3205 7.00781 32.1096 7.03125 32.1096C7.05469 32.1096 7.26562 32.3049 7.5 32.5393Z" fill="#44DDE7"></path><path d="M21.1567 17.2581C16.4379 17.7424 16.5551 17.719 16.4457 18.2034C16.3832 18.4924 16.4926 18.6956 16.977 19.1956C17.1957 19.4221 17.3598 19.6174 17.3363 19.6331C17.3207 19.6487 16.352 20.2659 15.1879 21.0081C14.0238 21.7424 13.016 22.4065 12.9457 22.4846C12.6723 22.7893 12.7817 23.3206 13.1488 23.4768C13.3754 23.5706 13.9301 23.5315 18.0082 23.1174C20.5473 22.8674 22.6645 22.6565 22.7192 22.6565C22.9301 22.6565 23.2035 22.2815 23.2035 21.9924C23.2035 21.7502 23.1332 21.6331 22.7348 21.219L22.266 20.7268L24.4692 19.3206C25.7973 18.4846 26.727 17.844 26.7895 17.7268C26.9223 17.4924 26.8598 17.1721 26.641 16.9534C26.4223 16.7346 26.1723 16.7502 21.1567 17.2581ZM23.3988 18.4221C23.352 18.4612 22.7504 18.8518 22.0473 19.2971C21.352 19.7346 20.727 20.1721 20.6645 20.2659C20.4692 20.5393 20.5238 20.8284 20.8285 21.1721C20.9926 21.3518 21.0629 21.4846 21.0082 21.4846C20.9457 21.4846 19.8676 21.5862 18.602 21.719C17.3363 21.844 16.2895 21.9377 16.2738 21.9299C16.266 21.9143 16.8442 21.5237 17.5707 21.0627C18.2973 20.6096 18.9379 20.1721 18.9926 20.1096C19.1801 19.8831 19.102 19.4612 18.8207 19.1721C18.6801 19.0315 18.5785 18.8987 18.602 18.8831C18.6176 18.8674 19.6879 18.7502 20.977 18.6174C22.266 18.4846 23.352 18.3752 23.3988 18.3674C23.4379 18.3596 23.4379 18.3831 23.3988 18.4221Z" fill="#44DDE7"></path></svg>