<svg xmlns="http://www.w3.org/2000/svg" width="33" height="43" viewBox="0 0 33 43" fill="none"><circle cx="1.99138" cy="1.99138" r="1.99138" fill="#417FFB"></circle><circle cx="11.6638" cy="1.99138" r="1.99138" fill="#417FFB"></circle><circle cx="21.3362" cy="1.99138" r="1.99138" fill="#417FFB"></circle><circle cx="31.0086" cy="1.99138" r="1.99138" fill="#417FFB"></circle><circle cx="1.99138" cy="11.6643" r="1.99138" fill="#417FFB"></circle><circle cx="11.6638" cy="11.6643" r="1.99138" fill="#417FFB"></circle><circle cx="21.3362" cy="11.6643" r="1.99138" fill="#417FFB"></circle><circle cx="31.0086" cy="11.6643" r="1.99138" fill="#417FFB"></circle><circle cx="1.99138" cy="21.3353" r="1.99138" fill="#417FFB"></circle><circle cx="11.6638" cy="21.3353" r="1.99138" fill="#417FFB"></circle><circle cx="21.3362" cy="21.3353" r="1.99138" fill="#417FFB"></circle><circle cx="31.0086" cy="21.3353" r="1.99138" fill="#417FFB"></circle><circle cx="1.99138" cy="31.0083" r="1.99138" fill="#417FFB"></circle><circle cx="11.6638" cy="31.0083" r="1.99138" fill="#417FFB"></circle><circle cx="21.3362" cy="31.0083" r="1.99138" fill="#417FFB"></circle><circle cx="31.0086" cy="31.0083" r="1.99138" fill="#417FFB"></circle><circle cx="1.99138" cy="40.681" r="1.99138" fill="#417FFB"></circle><circle cx="11.6638" cy="40.6813" r="1.99138" fill="#417FFB"></circle><circle cx="21.3362" cy="40.6813" r="1.99138" fill="#417FFB"></circle><circle cx="31.0086" cy="40.6813" r="1.99138" fill="#417FFB"></circle></svg>