<svg xmlns="http://www.w3.org/2000/svg" width="35" height="35" viewBox="0 0 35 35" fill="none"><rect x="0.5" y="0.5" width="34" height="34" rx="17" stroke="#9999E0" stroke-dasharray="2 2"></rect><path d="M13.36 24H22.252V22.56H16.51L20.524 18.474C21.016 17.97 21.418 17.4 21.73 16.764C22.042 16.128 22.198 15.486 22.198 14.838C22.198 14.454 22.12 14.052 21.964 13.632C21.808 13.212 21.568 12.822 21.244 12.462C20.92 12.09 20.506 11.79 20.002 11.562C19.498 11.322 18.898 11.202 18.202 11.202C17.338 11.202 16.594 11.394 15.97 11.778C15.358 12.15 14.89 12.678 14.566 13.362C14.242 14.034 14.08 14.82 14.08 15.72H15.61C15.61 15.084 15.712 14.538 15.916 14.082C16.12 13.614 16.414 13.26 16.798 13.02C17.194 12.768 17.662 12.642 18.202 12.642C18.586 12.642 18.928 12.708 19.228 12.84C19.528 12.972 19.78 13.146 19.984 13.362C20.2 13.578 20.362 13.818 20.47 14.082C20.578 14.346 20.632 14.616 20.632 14.892C20.632 15.228 20.578 15.552 20.47 15.864C20.374 16.164 20.224 16.464 20.02 16.764C19.828 17.052 19.594 17.346 19.318 17.646L13.36 24Z" fill="#FE574C"></path></svg>