<svg xmlns="http://www.w3.org/2000/svg" width="36" height="36" viewBox="0 0 36 36" fill="none"><circle cx="18" cy="18" r="18" fill="#273549"></circle><circle cx="18" cy="18" r="15" fill="#1C283D"></circle><mask id="path-3-outside-1_1045_51" maskUnits="userSpaceOnUse" x="7.83203" y="8.11072" width="21" height="18" fill="black"><rect fill="white" x="7.83203" y="8.11072" width="21" height="18"></rect><path d="M17.9568 9.03475C16.2041 9.14121 14.4704 9.81036 13.056 10.9243C12.6492 11.2437 11.7862 12.122 11.4858 12.5288C10.3756 14.0115 9.77492 15.6464 9.69888 17.3801L9.67607 17.92L9.5354 17.9618C9.31868 18.0264 9.07156 18.2393 8.94609 18.4637L8.83203 18.669V20.684V22.6991L8.93468 22.893C9.1476 23.2998 9.44035 23.4481 10.0715 23.4709L10.5163 23.4861L10.5315 23.7598C10.5543 24.102 10.695 24.4062 10.9421 24.6533C11.2881 24.9993 11.7596 25.1399 12.4515 25.1057C12.7481 25.0905 12.8279 25.0677 13.0028 24.9727C13.2537 24.832 13.4362 24.5544 13.4704 24.2617C13.4819 24.1552 13.4895 22.4672 13.4819 20.5129L13.4704 16.9581L13.3868 16.8022C13.2803 16.6007 13.037 16.384 12.8545 16.3308C12.7671 16.3041 12.4971 16.2927 12.1588 16.3003C11.6493 16.3117 11.5923 16.3193 11.3794 16.4182C10.8965 16.6425 10.5695 17.1064 10.5277 17.6234C10.5049 17.901 10.5011 17.9086 10.4022 17.92L10.2958 17.9314V17.5778C10.2996 16.3079 10.7748 14.7415 11.5238 13.5287C12.6492 11.719 14.4894 10.3769 16.5501 9.87119C17.8693 9.54422 19.2571 9.54422 20.5459 9.86739C22.6332 10.3921 24.4392 11.7113 25.5836 13.5591C26.3135 14.7301 26.7964 16.3422 26.7964 17.5968V17.9314L26.6937 17.92C26.5911 17.9086 26.5873 17.8972 26.5645 17.6424C26.5226 17.114 26.1957 16.6425 25.7128 16.4182C25.4999 16.3193 25.4429 16.3117 24.9334 16.3003C24.595 16.2927 24.3251 16.3041 24.2377 16.3308C24.0552 16.384 23.8118 16.6007 23.7054 16.8022L23.6217 16.9581L23.6103 20.5129C23.6027 22.4672 23.6103 24.1552 23.6217 24.2617C23.656 24.5544 23.8384 24.832 24.0894 24.9727C24.2643 25.0677 24.3441 25.0905 24.6407 25.1057C25.3326 25.1399 25.8041 24.9993 26.1501 24.6533C26.3972 24.4062 26.5379 24.102 26.5607 23.7598L26.5759 23.4861L27.0207 23.4709C27.6518 23.4481 27.9446 23.2998 28.1575 22.893L28.2602 22.6991V20.684V18.669L28.1461 18.4637C28.013 18.2241 27.8305 18.0607 27.591 17.977L27.4161 17.9124L27.3933 17.3801C27.3021 15.2814 26.4238 13.2892 24.903 11.7228C24.1274 10.9243 23.4088 10.3997 22.4431 9.92442C21.3291 9.37693 20.3064 9.10699 19.0403 9.02715C18.7362 9.01194 18.4739 8.99673 18.451 9.00053C18.432 9.00053 18.2077 9.01574 17.9568 9.03475ZM12.7671 16.9771C12.8089 17.0189 12.8507 17.0911 12.8621 17.1368C12.8735 17.1862 12.8773 18.8211 12.8735 20.7677L12.8621 24.3111L12.7747 24.3986C12.7024 24.4746 12.6416 24.4898 12.3717 24.4974C11.771 24.524 11.4098 24.3719 11.2197 24.0146L11.1322 23.8473V20.6954C11.1322 17.2965 11.1246 17.4295 11.3375 17.1824C11.5238 16.9581 11.7025 16.9011 12.2272 16.9011C12.6378 16.9011 12.6986 16.9087 12.7671 16.9771ZM25.5722 17.0265C25.6596 17.0835 25.7775 17.2014 25.8345 17.2889L25.9409 17.4485L25.9523 20.646L25.96 23.8435L25.8725 24.0146C25.6824 24.3719 25.325 24.524 24.7205 24.4974C24.4506 24.4898 24.3897 24.4746 24.3175 24.3986L24.2301 24.3111V20.6802V17.0455L24.3251 16.9695C24.4087 16.9011 24.462 16.8972 24.9144 16.9087C25.3859 16.9201 25.4239 16.9277 25.5722 17.0265ZM10.5163 20.6916L10.5049 22.8512H10.1171C9.78253 22.8512 9.71409 22.8397 9.62284 22.7713C9.41754 22.6192 9.42134 22.6572 9.42894 20.6346L9.44035 18.7564L9.56581 18.6462C9.68748 18.5397 9.69888 18.5359 10.1057 18.5359H10.5239L10.5163 20.6916ZM27.4731 18.5967C27.6708 18.7336 27.6708 18.7374 27.6708 20.6916C27.6708 22.6458 27.6708 22.6192 27.4693 22.7713C27.3781 22.8397 27.3097 22.8512 26.9751 22.8512H26.5873L26.5759 20.6916L26.5683 18.5359H26.9789C27.2868 18.5359 27.4085 18.5511 27.4731 18.5967Z"></path></mask><path d="M17.9568 9.03475C16.2041 9.14121 14.4704 9.81036 13.056 10.9243C12.6492 11.2437 11.7862 12.122 11.4858 12.5288C10.3756 14.0115 9.77492 15.6464 9.69888 17.3801L9.67607 17.92L9.5354 17.9618C9.31868 18.0264 9.07156 18.2393 8.94609 18.4637L8.83203 18.669V20.684V22.6991L8.93468 22.893C9.1476 23.2998 9.44035 23.4481 10.0715 23.4709L10.5163 23.4861L10.5315 23.7598C10.5543 24.102 10.695 24.4062 10.9421 24.6533C11.2881 24.9993 11.7596 25.1399 12.4515 25.1057C12.7481 25.0905 12.8279 25.0677 13.0028 24.9727C13.2537 24.832 13.4362 24.5544 13.4704 24.2617C13.4819 24.1552 13.4895 22.4672 13.4819 20.5129L13.4704 16.9581L13.3868 16.8022C13.2803 16.6007 13.037 16.384 12.8545 16.3308C12.7671 16.3041 12.4971 16.2927 12.1588 16.3003C11.6493 16.3117 11.5923 16.3193 11.3794 16.4182C10.8965 16.6425 10.5695 17.1064 10.5277 17.6234C10.5049 17.901 10.5011 17.9086 10.4022 17.92L10.2958 17.9314V17.5778C10.2996 16.3079 10.7748 14.7415 11.5238 13.5287C12.6492 11.719 14.4894 10.3769 16.5501 9.87119C17.8693 9.54422 19.2571 9.54422 20.5459 9.86739C22.6332 10.3921 24.4392 11.7113 25.5836 13.5591C26.3135 14.7301 26.7964 16.3422 26.7964 17.5968V17.9314L26.6937 17.92C26.5911 17.9086 26.5873 17.8972 26.5645 17.6424C26.5226 17.114 26.1957 16.6425 25.7128 16.4182C25.4999 16.3193 25.4429 16.3117 24.9334 16.3003C24.595 16.2927 24.3251 16.3041 24.2377 16.3308C24.0552 16.384 23.8118 16.6007 23.7054 16.8022L23.6217 16.9581L23.6103 20.5129C23.6027 22.4672 23.6103 24.1552 23.6217 24.2617C23.656 24.5544 23.8384 24.832 24.0894 24.9727C24.2643 25.0677 24.3441 25.0905 24.6407 25.1057C25.3326 25.1399 25.8041 24.9993 26.1501 24.6533C26.3972 24.4062 26.5379 24.102 26.5607 23.7598L26.5759 23.4861L27.0207 23.4709C27.6518 23.4481 27.9446 23.2998 28.1575 22.893L28.2602 22.6991V20.684V18.669L28.1461 18.4637C28.013 18.2241 27.8305 18.0607 27.591 17.977L27.4161 17.9124L27.3933 17.3801C27.3021 15.2814 26.4238 13.2892 24.903 11.7228C24.1274 10.9243 23.4088 10.3997 22.4431 9.92442C21.3291 9.37693 20.3064 9.10699 19.0403 9.02715C18.7362 9.01194 18.4739 8.99673 18.451 9.00053C18.432 9.00053 18.2077 9.01574 17.9568 9.03475ZM12.7671 16.9771C12.8089 17.0189 12.8507 17.0911 12.8621 17.1368C12.8735 17.1862 12.8773 18.8211 12.8735 20.7677L12.8621 24.3111L12.7747 24.3986C12.7024 24.4746 12.6416 24.4898 12.3717 24.4974C11.771 24.524 11.4098 24.3719 11.2197 24.0146L11.1322 23.8473V20.6954C11.1322 17.2965 11.1246 17.4295 11.3375 17.1824C11.5238 16.9581 11.7025 16.9011 12.2272 16.9011C12.6378 16.9011 12.6986 16.9087 12.7671 16.9771ZM25.5722 17.0265C25.6596 17.0835 25.7775 17.2014 25.8345 17.2889L25.9409 17.4485L25.9523 20.646L25.96 23.8435L25.8725 24.0146C25.6824 24.3719 25.325 24.524 24.7205 24.4974C24.4506 24.4898 24.3897 24.4746 24.3175 24.3986L24.2301 24.3111V20.6802V17.0455L24.3251 16.9695C24.4087 16.9011 24.462 16.8972 24.9144 16.9087C25.3859 16.9201 25.4239 16.9277 25.5722 17.0265ZM10.5163 20.6916L10.5049 22.8512H10.1171C9.78253 22.8512 9.71409 22.8397 9.62284 22.7713C9.41754 22.6192 9.42134 22.6572 9.42894 20.6346L9.44035 18.7564L9.56581 18.6462C9.68748 18.5397 9.69888 18.5359 10.1057 18.5359H10.5239L10.5163 20.6916ZM27.4731 18.5967C27.6708 18.7336 27.6708 18.7374 27.6708 20.6916C27.6708 22.6458 27.6708 22.6192 27.4693 22.7713C27.3781 22.8397 27.3097 22.8512 26.9751 22.8512H26.5873L26.5759 20.6916L26.5683 18.5359H26.9789C27.2868 18.5359 27.4085 18.5511 27.4731 18.5967Z" fill="#44DDE7"></path><path d="M17.9568 9.03475C16.2041 9.14121 14.4704 9.81036 13.056 10.9243C12.6492 11.2437 11.7862 12.122 11.4858 12.5288C10.3756 14.0115 9.77492 15.6464 9.69888 17.3801L9.67607 17.92L9.5354 17.9618C9.31868 18.0264 9.07156 18.2393 8.94609 18.4637L8.83203 18.669V20.684V22.6991L8.93468 22.893C9.1476 23.2998 9.44035 23.4481 10.0715 23.4709L10.5163 23.4861L10.5315 23.7598C10.5543 24.102 10.695 24.4062 10.9421 24.6533C11.2881 24.9993 11.7596 25.1399 12.4515 25.1057C12.7481 25.0905 12.8279 25.0677 13.0028 24.9727C13.2537 24.832 13.4362 24.5544 13.4704 24.2617C13.4819 24.1552 13.4895 22.4672 13.4819 20.5129L13.4704 16.9581L13.3868 16.8022C13.2803 16.6007 13.037 16.384 12.8545 16.3308C12.7671 16.3041 12.4971 16.2927 12.1588 16.3003C11.6493 16.3117 11.5923 16.3193 11.3794 16.4182C10.8965 16.6425 10.5695 17.1064 10.5277 17.6234C10.5049 17.901 10.5011 17.9086 10.4022 17.92L10.2958 17.9314V17.5778C10.2996 16.3079 10.7748 14.7415 11.5238 13.5287C12.6492 11.719 14.4894 10.3769 16.5501 9.87119C17.8693 9.54422 19.2571 9.54422 20.5459 9.86739C22.6332 10.3921 24.4392 11.7113 25.5836 13.5591C26.3135 14.7301 26.7964 16.3422 26.7964 17.5968V17.9314L26.6937 17.92C26.5911 17.9086 26.5873 17.8972 26.5645 17.6424C26.5226 17.114 26.1957 16.6425 25.7128 16.4182C25.4999 16.3193 25.4429 16.3117 24.9334 16.3003C24.595 16.2927 24.3251 16.3041 24.2377 16.3308C24.0552 16.384 23.8118 16.6007 23.7054 16.8022L23.6217 16.9581L23.6103 20.5129C23.6027 22.4672 23.6103 24.1552 23.6217 24.2617C23.656 24.5544 23.8384 24.832 24.0894 24.9727C24.2643 25.0677 24.3441 25.0905 24.6407 25.1057C25.3326 25.1399 25.8041 24.9993 26.1501 24.6533C26.3972 24.4062 26.5379 24.102 26.5607 23.7598L26.5759 23.4861L27.0207 23.4709C27.6518 23.4481 27.9446 23.2998 28.1575 22.893L28.2602 22.6991V20.684V18.669L28.1461 18.4637C28.013 18.2241 27.8305 18.0607 27.591 17.977L27.4161 17.9124L27.3933 17.3801C27.3021 15.2814 26.4238 13.2892 24.903 11.7228C24.1274 10.9243 23.4088 10.3997 22.4431 9.92442C21.3291 9.37693 20.3064 9.10699 19.0403 9.02715C18.7362 9.01194 18.4739 8.99673 18.451 9.00053C18.432 9.00053 18.2077 9.01574 17.9568 9.03475ZM12.7671 16.9771C12.8089 17.0189 12.8507 17.0911 12.8621 17.1368C12.8735 17.1862 12.8773 18.8211 12.8735 20.7677L12.8621 24.3111L12.7747 24.3986C12.7024 24.4746 12.6416 24.4898 12.3717 24.4974C11.771 24.524 11.4098 24.3719 11.2197 24.0146L11.1322 23.8473V20.6954C11.1322 17.2965 11.1246 17.4295 11.3375 17.1824C11.5238 16.9581 11.7025 16.9011 12.2272 16.9011C12.6378 16.9011 12.6986 16.9087 12.7671 16.9771ZM25.5722 17.0265C25.6596 17.0835 25.7775 17.2014 25.8345 17.2889L25.9409 17.4485L25.9523 20.646L25.96 23.8435L25.8725 24.0146C25.6824 24.3719 25.325 24.524 24.7205 24.4974C24.4506 24.4898 24.3897 24.4746 24.3175 24.3986L24.2301 24.3111V20.6802V17.0455L24.3251 16.9695C24.4087 16.9011 24.462 16.8972 24.9144 16.9087C25.3859 16.9201 25.4239 16.9277 25.5722 17.0265ZM10.5163 20.6916L10.5049 22.8512H10.1171C9.78253 22.8512 9.71409 22.8397 9.62284 22.7713C9.41754 22.6192 9.42134 22.6572 9.42894 20.6346L9.44035 18.7564L9.56581 18.6462C9.68748 18.5397 9.69888 18.5359 10.1057 18.5359H10.5239L10.5163 20.6916ZM27.4731 18.5967C27.6708 18.7336 27.6708 18.7374 27.6708 20.6916C27.6708 22.6458 27.6708 22.6192 27.4693 22.7713C27.3781 22.8397 27.3097 22.8512 26.9751 22.8512H26.5873L26.5759 20.6916L26.5683 18.5359H26.9789C27.2868 18.5359 27.4085 18.5511 27.4731 18.5967Z" stroke="#44DDE7" stroke-width="0.6" mask="url(#path-3-outside-1_1045_51)"></path></svg>