<svg xmlns="http://www.w3.org/2000/svg" width="23" height="43" viewBox="0 0 23 43" fill="none"><path d="M2.12734 0.785728C1.73262 0.886509 1.01035 1.30643 0.783594 1.57518C0.666016 1.71796 0.472852 2.0203 0.346875 2.25546L0.120117 2.68378V21.5383V40.3928L0.346875 40.8211C0.682813 41.4594 0.934766 41.7197 1.52266 42.0389L2.05176 42.3244H11.5H20.9482L21.4773 42.0389C22.0652 41.7197 22.3172 41.4594 22.6531 40.8211L22.8799 40.3928V21.5383V2.68378L22.5943 2.15467C22.2752 1.56678 22.0148 1.31483 21.3766 0.978893L20.9482 0.752136L11.668 0.735336C6.56172 0.735336 2.27012 0.752136 2.12734 0.785728ZM7.2252 3.20448C7.42676 4.01913 7.56953 4.42225 7.69551 4.54823L7.88027 4.74139H11.4412C14.7166 4.74139 15.0273 4.73299 15.1869 4.59022C15.3129 4.48944 15.4725 4.08632 15.6992 3.27167C15.884 2.62498 16.0352 2.08749 16.0352 2.07909C16.0352 2.06229 17.0346 2.05389 18.2607 2.05389C20.7635 2.05389 20.8895 2.07909 21.2926 2.60819L21.5361 2.91893V21.5467V40.1744L21.3598 40.4012C21.2674 40.5271 21.0826 40.7119 20.9566 40.8043C20.7299 40.9807 20.6879 40.9807 11.5084 40.9807H2.28691L1.97617 40.7371C1.37988 40.2836 1.42188 41.8541 1.42188 21.5467C1.42188 8.72225 1.44707 3.0869 1.51426 2.91893C1.56465 2.79295 1.68223 2.59139 1.78301 2.48221C2.15254 2.08749 2.32051 2.06229 4.70566 2.05389H6.94805L7.2252 3.20448ZM14.5654 2.28065C14.5402 2.41502 14.4563 2.71737 14.3891 2.95253L14.2631 3.39764H11.4664H8.66133L8.49336 2.72577L8.32539 2.05389H11.4748H14.6242L14.5654 2.28065Z" fill="white"></path><path d="M7.10762 17.6078C7.04043 17.6666 6.32656 18.5232 5.54551 19.5143C4.47051 20.858 4.10938 21.3619 4.10938 21.5383C4.10938 21.7146 4.47051 22.2186 5.54551 23.5623C6.32656 24.5533 7.04043 25.41 7.10762 25.4604C7.33438 25.6367 7.7123 25.5863 7.93066 25.3596C8.32539 24.9732 8.2498 24.8053 6.92285 23.1424C6.25098 22.3109 5.70508 21.5887 5.70508 21.5383C5.70508 21.4879 6.25098 20.7656 6.92285 19.9342C8.2498 18.2713 8.32539 18.1033 7.93066 17.717C7.7123 17.4902 7.33438 17.4398 7.10762 17.6078Z" fill="white"></path><path d="M13.1125 17.6498C12.8186 17.9101 8.8125 24.6961 8.8125 24.9396C8.8125 25.4351 9.50957 25.7543 9.8875 25.4183C10.1814 25.1664 14.1875 18.3804 14.1875 18.1369C14.1875 17.6414 13.4904 17.3222 13.1125 17.6498Z" fill="white"></path><path d="M15.0693 17.717C14.6746 18.1033 14.7501 18.2713 16.0771 19.9342C16.749 20.7656 17.2949 21.4879 17.2949 21.5383C17.2949 21.5887 16.749 22.3109 16.0771 23.1424C14.7501 24.8053 14.6746 24.9732 15.0693 25.3596C15.2876 25.5863 15.6656 25.6367 15.8923 25.4604C15.9595 25.41 16.6734 24.5533 17.4544 23.5623C18.5294 22.2186 18.8906 21.7146 18.8906 21.5383C18.8906 21.3619 18.5294 20.858 17.4544 19.5143C16.6734 18.5232 15.9595 17.6666 15.8923 17.6078C15.6656 17.4398 15.2876 17.4902 15.0693 17.717Z" fill="white"></path><path d="M2.97559 38.5451C2.84121 38.6711 2.76562 38.8474 2.76562 39.007C2.76562 39.1666 2.84121 39.343 2.97559 39.4689L3.17715 39.6789H5.78906H8.40098L8.60254 39.4689C8.73691 39.343 8.8125 39.1666 8.8125 39.007C8.8125 38.8474 8.73691 38.6711 8.60254 38.5451L8.40098 38.3351H5.78906H3.17715L2.97559 38.5451Z" fill="white"></path><path d="M9.69434 38.5451C9.55996 38.6711 9.48438 38.8474 9.48438 39.007C9.48438 39.1666 9.55996 39.343 9.69434 39.4689C9.8707 39.6537 9.97148 39.6789 10.4922 39.6789C11.0129 39.6789 11.1137 39.6537 11.29 39.4689C11.4244 39.343 11.5 39.1666 11.5 39.007C11.5 38.8474 11.4244 38.6711 11.29 38.5451C11.1137 38.3603 11.0129 38.3351 10.4922 38.3351C9.97148 38.3351 9.8707 38.3603 9.69434 38.5451Z" fill="white"></path></svg>