<svg xmlns="http://www.w3.org/2000/svg" width="41" height="41" viewBox="0 0 41 41" fill="none"><path d="M4.08114 0.461479C3.30849 0.612648 2.35946 1.14175 1.73798 1.76323C-0.101278 3.60249 -0.109676 6.53355 1.72118 8.36441C2.67861 9.32183 3.67802 9.73335 5.04696 9.73335C6.01279 9.73335 6.4747 9.61577 7.33134 9.16226C8.33075 8.64156 9.26298 7.44058 9.55693 6.31519L9.6997 5.74409H13.269H16.8384L16.4436 6.14722C16.2253 6.36558 16.0489 6.57554 16.0489 6.60913C16.0489 6.70152 16.8636 7.50777 16.9559 7.50777C16.9895 7.50777 17.5018 7.02906 18.0813 6.43277L19.1479 5.36617L19.2403 5.91206C19.5259 7.57495 20.794 8.99429 22.5157 9.57378C23.154 9.79214 24.5649 9.79214 25.2032 9.57378C26.7905 9.03628 27.9831 7.81011 28.3694 6.31519L28.5122 5.74409H30.6622C32.955 5.74409 33.5429 5.80288 34.5255 6.13042C35.5837 6.48316 36.3311 6.96187 37.213 7.8437C38.6071 9.23784 39.3126 10.9091 39.3126 12.7988C39.3126 14.6884 38.6071 16.3597 37.213 17.7539C36.0792 18.8876 34.8782 19.5175 33.3497 19.7611C33.0054 19.8199 30.7042 19.8535 27.1349 19.8535H21.4743L21.869 19.4503C22.0874 19.232 22.2638 19.0136 22.2638 18.9632C22.2638 18.8541 21.4827 18.0898 21.3735 18.0898C21.3315 18.0898 20.8108 18.5685 20.2313 19.1648L19.1647 20.2314L19.0724 19.6855C18.8288 18.2914 17.821 16.956 16.5276 16.3345C14.3188 15.2679 11.8329 15.965 10.5059 18.0226C10.1868 18.5013 9.83407 19.4 9.83407 19.7023C9.83407 19.8367 9.75009 19.8535 8.96064 19.8535C6.54189 19.8535 4.44228 20.7017 2.81298 22.331C-0.462411 25.6064 -0.462411 30.8974 2.82138 34.1728C3.53525 34.8951 4.23232 35.3822 5.24853 35.8609C6.38232 36.3984 7.18857 36.5748 8.76747 36.6251L10.1028 36.6755L9.6997 37.0787L9.28818 37.4902L9.77529 37.9773L10.254 38.456L11.3458 37.3642L12.4292 36.2724L12.5216 36.8183C12.8071 38.4812 14.0753 39.9005 15.797 40.48C16.4352 40.6984 17.8462 40.6984 18.4845 40.48C20.0718 39.9425 21.2643 38.7164 21.6507 37.2214L21.7934 36.6503H25.3628H28.9321L28.5374 37.0535C28.319 37.2718 28.1427 37.4818 28.1427 37.5154C28.1427 37.6078 28.9573 38.414 29.0497 38.414C29.0833 38.414 29.5956 37.9353 30.1751 37.339L31.2417 36.2724L31.3341 36.8183C31.6196 38.4812 32.8878 39.9005 34.6095 40.48C35.2477 40.6984 36.6587 40.6984 37.297 40.48C38.4224 40.1021 39.4386 39.321 39.9593 38.4392C41.0763 36.5328 40.7991 34.2148 39.2706 32.6779C37.4397 30.8302 34.4919 30.8218 32.6442 32.6695C31.9808 33.3414 31.4852 34.2736 31.3341 35.1386L31.2417 35.6845L30.1751 34.6179C29.5956 34.0216 29.0749 33.5429 29.0245 33.5429C28.9153 33.5429 28.1427 34.3156 28.1427 34.4248C28.1427 34.4667 28.319 34.6851 28.5374 34.9035L28.9321 35.3066H25.346C21.9446 35.3066 21.7599 35.2982 21.7599 35.1554C21.7599 34.8531 21.3987 33.9544 21.0796 33.4589C19.4419 30.9226 15.9649 30.5447 13.8317 32.6695C13.1683 33.3414 12.6727 34.2736 12.5216 35.1386L12.4292 35.6845L11.3626 34.6179C10.7831 34.0216 10.2624 33.5429 10.212 33.5429C10.1028 33.5429 9.33017 34.3156 9.33017 34.4248C9.33017 34.4667 9.50654 34.6851 9.73329 34.9119L10.128 35.3234L8.82626 35.2814C7.85204 35.2478 7.37333 35.189 6.91142 35.063C4.19872 34.2736 2.21669 32.0648 1.77997 29.3437C1.43564 27.2189 2.12431 25.0017 3.62763 23.4228C5.00497 21.9783 6.53349 21.3064 8.68349 21.2224C9.78368 21.172 9.83407 21.1804 9.83407 21.34C9.83407 21.6507 10.1868 22.541 10.5143 23.0449C11.1274 24.0023 11.9757 24.6406 13.1095 25.0269C13.7477 25.2453 15.1587 25.2453 15.797 25.0269C17.6026 24.4222 18.8288 22.9777 19.1143 21.1552L19.1647 20.8109L20.2481 21.9111L21.3399 23.0029L21.8186 22.5242L22.3058 22.0371L21.8942 21.6255L21.4827 21.2056L27.5212 21.172C33.3749 21.1468 33.5765 21.1384 34.2315 20.9705C35.7433 20.5673 37.129 19.7779 38.1704 18.7365C40.7319 16.175 41.3702 12.2865 39.7661 9.07827C38.6575 6.86109 36.6755 5.27378 34.2315 4.6355C33.6436 4.48433 33.2489 4.45073 31.0233 4.42554C28.6886 4.39194 28.4786 4.37515 28.4786 4.24077C28.4786 3.94683 28.1175 3.0398 27.7983 2.55269C26.1606 0.0163612 22.6837 -0.361568 20.5505 1.76323C19.887 2.43511 19.3915 3.36734 19.2403 4.23238L19.1479 4.77827L18.0813 3.71167C17.5018 3.11538 16.9811 2.63667 16.9308 2.63667C16.8216 2.63667 16.0489 3.40933 16.0489 3.51851C16.0489 3.5605 16.2253 3.77886 16.4436 3.99722L16.8384 4.40034H13.2522C9.85087 4.40034 9.66611 4.39194 9.66611 4.24917C9.66611 3.94683 9.30497 3.04819 8.98583 2.55269C8.12919 1.22573 6.82743 0.469875 5.25693 0.411087C4.8454 0.394291 4.3163 0.411087 4.08114 0.461479ZM6.42431 2.03199C7.18857 2.38472 7.67568 2.87183 8.05361 3.62769C8.34755 4.23238 8.36435 4.30796 8.36435 5.07222C8.36435 5.83648 8.34755 5.91206 8.05361 6.51675C7.67568 7.28101 7.18857 7.75132 6.40751 8.12085C5.89521 8.36441 5.76923 8.3896 5.04696 8.3896C4.3247 8.3896 4.19872 8.36441 3.68642 8.12085C2.90536 7.75132 2.41825 7.28101 2.04032 6.51675C1.74638 5.91206 1.72958 5.83648 1.72958 5.08062C1.72958 4.34995 1.75478 4.22398 1.99833 3.71167C2.33427 2.99781 2.81298 2.4771 3.44286 2.14956C4.09794 1.79683 4.46747 1.71284 5.23173 1.74644C5.74404 1.77163 6.00439 1.83882 6.42431 2.03199ZM25.2368 2.03199C26.0011 2.38472 26.4882 2.87183 26.8661 3.62769C27.1601 4.23238 27.1768 4.30796 27.1768 5.07222C27.1768 5.83648 27.1601 5.91206 26.8661 6.51675C26.4882 7.28101 26.0011 7.75132 25.22 8.12085C24.7077 8.36441 24.5817 8.3896 23.8595 8.3896C23.1372 8.3896 23.0112 8.36441 22.4989 8.12085C21.7179 7.75132 21.2308 7.28101 20.8528 6.51675C20.5589 5.91206 20.5421 5.83648 20.5421 5.08062C20.5421 4.34995 20.5673 4.22398 20.8108 3.71167C21.1468 2.99781 21.6255 2.4771 22.2554 2.14956C22.9104 1.79683 23.28 1.71284 24.0442 1.74644C24.5565 1.77163 24.8169 1.83882 25.2368 2.03199ZM15.8306 17.4851C16.5948 17.8378 17.0819 18.325 17.4599 19.0808C17.7538 19.6855 17.7706 19.7611 17.7706 20.5253C17.7706 21.2896 17.7538 21.3652 17.4599 21.9699C17.0819 22.7341 16.5948 23.2044 15.8138 23.574C15.3015 23.8175 15.1755 23.8427 14.4532 23.8427C13.7309 23.8427 13.605 23.8175 13.0927 23.574C12.3116 23.2044 11.8245 22.7341 11.4466 21.9699C11.1526 21.3652 11.1358 21.2896 11.1358 20.5337C11.1358 19.8031 11.161 19.6771 11.4046 19.1648C11.7405 18.4509 12.2192 17.9302 12.8491 17.6027C13.5042 17.25 13.8737 17.166 14.638 17.1996C15.1503 17.2248 15.4106 17.2919 15.8306 17.4851ZM18.5181 32.9382C19.2823 33.291 19.7694 33.7781 20.1474 34.5339C20.4413 35.1386 20.4581 35.2142 20.4581 35.9785C20.4581 36.7427 20.4413 36.8183 20.1474 37.423C19.7694 38.1873 19.2823 38.6576 18.5013 39.0271C17.989 39.2707 17.863 39.2958 17.1407 39.2958C16.4184 39.2958 16.2925 39.2707 15.7802 39.0271C14.9991 38.6576 14.512 38.1873 14.1341 37.423C13.8401 36.8183 13.8233 36.7427 13.8233 35.9869C13.8233 35.2562 13.8485 35.1302 14.0921 34.6179C14.428 33.9041 14.9067 33.3833 15.5366 33.0558C16.1917 32.7031 16.5612 32.6191 17.3255 32.6527C17.8378 32.6779 18.0981 32.7451 18.5181 32.9382ZM37.3306 32.9382C38.0948 33.291 38.5819 33.7781 38.9599 34.5339C39.2538 35.1386 39.2706 35.2142 39.2706 35.9785C39.2706 36.7427 39.2538 36.8183 38.9599 37.423C38.5819 38.1873 38.0948 38.6576 37.3138 39.0271C36.8015 39.2707 36.6755 39.2958 35.9532 39.2958C35.2309 39.2958 35.105 39.2707 34.5927 39.0271C33.8116 38.6576 33.3245 38.1873 32.9466 37.423C32.6526 36.8183 32.6358 36.7427 32.6358 35.9869C32.6358 35.2562 32.661 35.1302 32.9046 34.6179C33.2405 33.9041 33.7192 33.3833 34.3491 33.0558C35.0042 32.7031 35.3737 32.6191 36.138 32.6527C36.6503 32.6779 36.9106 32.7451 37.3306 32.9382Z" fill="white"></path></svg>