<svg xmlns="http://www.w3.org/2000/svg" width="34" height="36" viewBox="0 0 34 36" fill="none"><path d="M17.8493 3.02502C9.68013 2.60789 4.57071 7.60553 2.67578 9.81747C-3.00901 16.4535 1.52043 29.1072 5.59055 31.5621C7.95825 32.9902 13.6323 35.6572 19.0675 25.8354C24.3462 16.2964 34.873 21.8963 33.9421 15.6237C32.8734 8.4221 25.9704 3.43969 17.8493 3.02502Z" fill="#FF5F55" fill-opacity="0.1"></path><path d="M9.89075 0.0809135C9.14857 0.318699 8.55771 0.844707 8.21905 1.55806L8.0317 1.96158L8.01009 4.69971C7.98847 7.42342 7.98847 7.43783 8.14699 7.56033C8.33434 7.71885 8.56492 7.72606 8.75947 7.58915C8.88196 7.49548 8.90358 7.36578 8.9324 6.45066L8.96843 5.42027L18.5375 5.39865L28.0993 5.38424V17.2014V29.0186H18.5159H8.9324V18.9091C8.9324 9.20321 8.9252 8.78528 8.8027 8.6772C8.62256 8.51867 8.26228 8.52588 8.11097 8.6844C8.00288 8.8069 7.99568 9.74362 8.01009 21.2077L8.0317 33.5942L8.22626 34.0049C8.49286 34.5741 8.9324 35.0281 9.50165 35.3091L9.97722 35.5397L16.5127 35.5613C22.9905 35.5757 23.0554 35.5757 23.1995 35.4316C23.3724 35.2587 23.3868 35.0209 23.2283 34.7975L23.1202 34.639H16.8946C12.6649 34.639 10.5537 34.6101 10.3015 34.5597C9.8259 34.4588 9.38636 34.113 9.15578 33.6662C8.97564 33.3203 8.96843 33.2699 8.94682 31.6703L8.9252 30.0274H18.5086H28.0993V31.5262C28.0993 33.2051 28.0344 33.5581 27.667 34.0049C27.2779 34.4804 26.9104 34.5957 25.7287 34.639C24.7055 34.675 24.6911 34.675 24.5469 34.8696C24.4172 35.0425 24.4172 35.0857 24.4965 35.2803C24.5469 35.41 24.655 35.5253 24.7487 35.5469C24.8352 35.5685 25.39 35.5757 25.9809 35.5613C26.968 35.5397 27.0905 35.5253 27.4652 35.3451C28.0344 35.0785 28.4884 34.639 28.7694 34.0697L29 33.5942V17.7779V1.96158L28.7694 1.48601C28.4884 0.916763 28.0344 0.477222 27.4652 0.210617L27.0545 0.0160637L18.6239 0.00165176C11.793 -0.00555038 10.1357 0.00885773 9.89075 0.0809135ZM26.8311 1.01764C27.2779 1.15455 27.6165 1.42116 27.8615 1.83908C28.0561 2.16333 28.0633 2.22098 28.0849 3.30902L28.1137 4.44751H18.5231H8.9324V3.48916C8.9324 2.27862 9.03328 1.88952 9.47282 1.45718C10.0277 0.895149 9.49444 0.923969 18.487 0.923969C25.1954 0.916763 26.5429 0.931175 26.8311 1.01764Z" fill="#FF5F55"></path><path d="M15.9218 2.37389C15.7417 2.57565 15.7345 2.82064 15.9218 3.00799C16.0587 3.14489 16.1596 3.1521 18.5158 3.1521C20.9369 3.1521 20.9585 3.1521 21.1098 2.99358C21.29 2.79182 21.2972 2.54683 21.1098 2.35948C20.9729 2.22258 20.8721 2.21537 18.5158 2.21537C16.0948 2.21537 16.0731 2.21537 15.9218 2.37389Z" fill="#FF5F55"></path><path d="M17.2621 6.79511C15.8858 7.09775 14.632 7.88316 13.7529 8.98561C13.335 9.51162 12.8162 10.5276 12.6361 11.1833C12.4847 11.7526 12.4199 13.1649 12.528 13.7773C13.0252 16.6235 15.5111 18.7636 18.3717 18.8068C19.6327 18.8213 20.1011 18.6627 20.1011 18.2232C20.1011 17.8989 19.8777 17.7476 19.467 17.7837C19.2796 17.7981 18.7752 17.8053 18.3357 17.8053C17.68 17.7981 17.4422 17.762 16.9666 17.6035C14.3942 16.7388 12.9315 14.1376 13.5512 11.5292C13.5944 11.3418 13.7818 10.8735 13.9547 10.4988C14.2357 9.91514 14.3726 9.72779 14.9058 9.20178C15.2445 8.86312 15.7056 8.48122 15.9362 8.35152C16.4046 8.0705 17.1756 7.79669 17.6728 7.72463L18.0114 7.67419V10.2898V12.9055L19.8921 14.7933L21.7728 16.674L21.254 17.0199C20.6559 17.4162 20.5262 17.6251 20.6847 17.9061C20.7424 18.0142 20.8721 18.1295 20.9801 18.1655C21.1387 18.2232 21.254 18.18 21.7367 17.8773C23.1851 16.9766 24.2299 15.413 24.4965 13.7197C24.619 12.9847 24.5541 11.7742 24.3524 11.0896C23.7831 9.08649 22.1691 7.47244 20.1587 6.88878C19.4526 6.68703 17.9682 6.63659 17.2621 6.79511ZM19.7696 7.80389C20.0074 7.86154 20.483 8.04889 20.8216 8.21461C21.5998 8.5893 22.5293 9.4828 22.9545 10.2466C23.2283 10.751 23.5597 11.7309 23.5597 12.0552V12.2281H21.29H19.0202V9.95837C19.0202 7.35715 18.941 7.58773 19.7696 7.80389ZM23.5597 13.4026C23.5597 13.907 23.0049 15.2977 22.6086 15.7805L22.4429 15.9823L21.0738 14.606L19.7048 13.2369H21.6359H23.5597V13.4026Z" fill="#FF5F55"></path><path d="M10.3735 20.2272C10.2366 20.3641 10.2294 20.465 10.2294 21.6972V23.0302L10.4168 23.1743C10.5969 23.3112 10.705 23.3256 11.8147 23.3256C12.9243 23.3256 13.0324 23.3112 13.2125 23.1743L13.3999 23.0302V21.6972C13.3999 19.9534 13.5296 20.0831 11.8147 20.0831C10.6113 20.0831 10.5104 20.0903 10.3735 20.2272ZM12.4632 21.7044V22.3168H11.8147H11.1662V21.7044V21.0919H11.8147H12.4632V21.7044Z" fill="#FF5F55"></path><path d="M14.8411 20.2276C14.697 20.3718 14.6537 20.696 14.7546 20.8473C14.9059 21.0851 15.1149 21.0923 19.6328 21.0923C24.1507 21.0923 24.3597 21.0851 24.511 20.8473C24.6119 20.696 24.5687 20.3718 24.4245 20.2276C24.2804 20.0835 24.1868 20.0835 19.6328 20.0835C15.0789 20.0835 14.9852 20.0835 14.8411 20.2276Z" fill="#FF5F55"></path><path d="M14.841 22.4622C14.632 22.6711 14.6536 22.9954 14.8914 23.1827C15.0788 23.3268 15.1292 23.334 18.0331 23.3124L20.9801 23.2908L21.117 23.1179C21.29 22.9017 21.29 22.7432 21.1026 22.5054L20.9585 22.318H17.9682C15.0788 22.318 14.9779 22.3252 14.841 22.4622Z" fill="#FF5F55"></path><path d="M10.3735 24.6959C10.2366 24.8328 10.2294 24.9337 10.2294 26.1514C10.2294 26.8792 10.2583 27.5061 10.2871 27.5493C10.4168 27.751 10.6906 27.7943 11.8363 27.7943C12.9243 27.7943 13.0324 27.7799 13.2125 27.643L13.3999 27.4989V26.1658C13.3999 24.4221 13.5296 24.5518 11.8147 24.5518C10.6113 24.5518 10.5104 24.559 10.3735 24.6959ZM12.4632 26.173V26.7855H11.8147H11.1662V26.173V25.5605H11.8147H12.4632V26.173Z" fill="#FF5F55"></path><path d="M14.8411 24.6963C14.697 24.8404 14.6537 25.1647 14.7546 25.316C14.9059 25.5538 15.1149 25.561 19.6544 25.561C24.1363 25.561 24.194 25.561 24.3813 25.4097C24.6119 25.2295 24.6335 24.9053 24.4245 24.6963C24.2804 24.5522 24.1868 24.5522 19.6328 24.5522C15.0789 24.5522 14.9852 24.5522 14.8411 24.6963Z" fill="#FF5F55"></path><path d="M14.841 26.9285C14.6753 27.0943 14.6537 27.4185 14.7978 27.6203C14.8987 27.75 15.0284 27.7572 17.8962 27.7788L20.8937 27.8004L21.0739 27.6203C21.3045 27.3897 21.3045 27.1879 21.0739 26.9646L20.901 26.7844H17.9395C15.0788 26.7844 14.9779 26.7916 14.841 26.9285Z" fill="#FF5F55"></path><path d="M18.1917 30.7423C17.6512 30.8792 17.1613 31.3043 17.0027 31.7943C16.6713 32.7959 17.4711 33.92 18.5087 33.92C18.9915 33.92 19.5679 33.6101 19.849 33.2138C20.1372 32.7959 20.1948 32.0753 19.9642 31.6358C19.7697 31.2467 19.3013 30.8576 18.9122 30.7567C18.5664 30.6702 18.5087 30.6702 18.1917 30.7423ZM18.8978 31.8303C19.359 32.1906 19.1212 32.904 18.5375 32.9112C18.2133 32.9112 18.0908 32.8463 17.9683 32.6085C17.7593 32.1978 18.062 31.6862 18.5159 31.6862C18.624 31.6862 18.7969 31.7511 18.8978 31.8303Z" fill="#FF5F55"></path></svg>