<svg xmlns="http://www.w3.org/2000/svg" width="39" height="34" viewBox="0 0 39 34" fill="none"><path d="M17.8493 3.96325C9.68013 3.54613 4.57071 8.54376 2.67578 10.7557C-3.00901 17.3917 1.52043 30.0454 5.59055 32.5003C7.95825 33.9284 13.6323 36.5954 19.0675 26.7736C24.3462 17.2346 34.873 22.8346 33.9421 16.5619C32.8734 9.36033 25.9704 4.37792 17.8493 3.96325Z" fill="#FF5F55" fill-opacity="0.1"></path><path d="M8.70564 0.922472C8.24712 1.09684 7.8209 1.49077 7.60132 1.93637L7.4205 2.30448L7.40113 6.37946L7.38175 10.4609L7.10406 10.5642C6.78116 10.6869 6.41306 11.0292 6.24515 11.3715C6.13536 11.591 6.12891 11.9914 6.12891 19.3212V27.0385L6.27098 27.2968C6.34848 27.4389 6.50347 27.6456 6.62617 27.7618C7.05885 28.1751 6.96199 28.1687 10.8239 28.1687C14.7245 28.1687 14.6018 28.1816 15.0603 27.7166C15.4736 27.3098 15.493 27.2258 15.5123 25.8244L15.5382 24.5522H17.7533H19.9683L19.794 25.1463C19.6971 25.4757 19.4905 26.0504 19.3419 26.425C19.1288 26.9481 19.0707 27.1612 19.0965 27.3485C19.1417 27.6843 19.413 28.0201 19.71 28.1041C19.8715 28.1557 21.0404 28.1687 23.3588 28.1557L26.7686 28.1364L27.0269 27.8651C27.3756 27.4906 27.3886 27.1806 27.0786 26.4767C26.8978 26.0698 26.5684 25.1076 26.478 24.733L26.4392 24.5587L31.9414 24.5393L37.4501 24.5199L37.8117 24.3391C38.238 24.1324 38.6642 23.6997 38.8579 23.2735L39 22.97V12.6695V2.36906L38.8321 2.00741C38.619 1.56181 38.2573 1.18725 37.8311 0.974134L37.5147 0.819143L23.2748 0.806229C9.21582 0.793312 9.02854 0.793312 8.70564 0.922472ZM37.5534 1.71034C37.7407 1.81367 37.9021 1.96866 38.0313 2.17532L38.225 2.4853L38.2444 11.1971L38.2573 19.9025H26.8913H15.5317L15.5123 15.7177L15.493 11.5265L15.2992 11.21C15.1765 11.0163 14.9828 10.8225 14.7891 10.6998L14.4726 10.5061L11.3147 10.4867L8.16317 10.4674V6.52799C8.16317 3.11818 8.17608 2.55634 8.26004 2.34968C8.39566 2.03324 8.59585 1.82659 8.90584 1.68451C9.15124 1.56827 9.69371 1.56181 23.2167 1.56181H37.2693L37.5534 1.71034ZM7.95651 11.7977C8.20192 12.3854 8.40211 12.6308 8.77668 12.8051C9.00916 12.9149 9.22228 12.9278 10.8368 12.9278C12.5352 12.9278 12.6579 12.9214 12.9227 12.7922C13.2585 12.6308 13.4135 12.4241 13.6847 11.7783C13.9108 11.2294 14.0141 11.1648 14.3564 11.3456C14.7761 11.5588 14.7503 11.0744 14.7503 19.289C14.7503 27.4841 14.7697 27.045 14.3693 27.2839C14.2014 27.3808 13.872 27.3937 10.7916 27.3937H7.40113L7.20739 27.2323C7.10406 27.1483 6.98136 26.9933 6.94261 26.8964C6.89095 26.7608 6.87157 24.733 6.88449 19.205L6.90386 11.6879L7.14927 11.4683C7.32363 11.3069 7.44633 11.2488 7.56903 11.2617C7.71757 11.2811 7.76923 11.3521 7.95651 11.7977ZM12.9098 11.6169C12.8194 11.8235 12.6967 12.0302 12.6385 12.0689C12.5546 12.1335 12.0832 12.1529 10.8109 12.1529C9.10603 12.1529 9.08666 12.1529 8.9575 12.0044C8.82834 11.8687 8.61523 11.4296 8.61523 11.3069C8.61523 11.2746 9.60975 11.2488 10.8432 11.2488H13.0712L12.9098 11.6169ZM38.2573 21.6267C38.2573 22.1563 38.225 22.6988 38.1863 22.8408C38.0894 23.1767 37.6567 23.6093 37.3209 23.7062C37.1336 23.7579 33.9822 23.7772 26.2972 23.7772H15.5253V22.2273V20.6774H26.8913H38.2573V21.6267ZM25.7741 25.1076C25.858 25.4176 26.0518 25.9988 26.2132 26.4056C26.3811 26.8125 26.5038 27.1935 26.4909 27.2516C26.4715 27.355 26.2132 27.3614 23.1909 27.3808C20.4527 27.3937 19.9102 27.3808 19.8779 27.3033C19.8586 27.2581 19.9619 26.9417 20.104 26.6123C20.3365 26.0504 20.5173 25.5144 20.6916 24.8234L20.7627 24.5522H23.1973H25.632L25.7741 25.1076Z" fill="#FF5F55"></path><path d="M21.6409 21.9563C21.4859 22.1242 21.5053 22.3954 21.6732 22.5117C21.7959 22.5956 22.0542 22.615 23.2231 22.615C24.547 22.615 24.6374 22.6085 24.7601 22.4858C24.9151 22.3308 24.9216 22.1758 24.786 21.9821C24.6891 21.84 24.6633 21.84 23.2167 21.84C21.8734 21.84 21.7378 21.8529 21.6409 21.9563Z" fill="#FF5F55"></path></svg>