<svg xmlns="http://www.w3.org/2000/svg" width="38" height="37" viewBox="0 0 38 37" fill="none"><path d="M17.4864 0.0444983C13.0786 0.601278 9.62963 3.77956 8.74807 8.0946C7.99023 11.7987 9.52137 17.2815 12.9316 23.1277L13.473 24.0556L9.19658 24.0943C5.53112 24.1252 4.90474 24.1484 4.80421 24.2489C4.68048 24.3727 0.195312 36.0882 0.195312 36.2816C0.195312 36.3434 0.280376 36.4826 0.388639 36.5832L0.574232 36.7765H18.6H36.6257L36.8113 36.5832C36.9196 36.4826 37.0046 36.3434 37.0046 36.2816C37.0046 36.0882 32.5195 24.3727 32.3957 24.2489C32.2952 24.1484 31.6688 24.1252 28.0034 24.0943L23.7193 24.0556L24.3766 22.9343C25.1808 21.5578 26.4181 19.0446 26.9362 17.7532C28.4441 13.9872 28.9545 10.6233 28.4209 8.00954C27.6167 4.08115 24.539 1.0034 20.6183 0.199159C19.729 0.0212991 18.2597 -0.0560314 17.4864 0.0444983ZM19.5666 1.12713C21.6391 1.36685 23.4486 2.24068 24.9101 3.70996C27.609 6.41653 28.2044 9.82681 26.8357 14.6986C25.9541 17.8228 24.0595 21.6352 21.438 25.5636C20.5332 26.9246 18.6928 29.4301 18.6 29.4301C18.5149 29.4301 16.7054 26.9864 15.8779 25.7569C10.9365 18.395 8.8254 12.0075 9.93896 7.75435C10.6117 5.20244 12.5759 2.89026 14.9577 1.85403C16.4966 1.18899 17.9968 0.949265 19.5666 1.12713ZM11.1994 29.2909C12.9316 31.5489 14.3468 33.4049 14.3313 33.4126C14.3159 33.4203 12.8698 33.9385 11.1144 34.5648L7.92063 35.6939H4.75781C2.89415 35.6939 1.58726 35.6629 1.58726 35.6243C1.58726 35.5856 2.40696 33.3971 3.41226 30.7679C4.41756 28.1387 5.30686 25.8033 5.39192 25.579L5.53885 25.1769H6.7916L8.04436 25.1846L11.1994 29.2909ZM14.8881 26.2363C15.615 27.319 17.5947 29.9946 18.0741 30.5437C18.4453 30.969 18.7546 30.969 19.1258 30.5437C19.6207 29.9791 21.5927 27.3112 22.3118 26.2363L23.0233 25.1769H27.3383H31.6611L31.808 25.579C31.8931 25.8033 32.0477 26.2209 32.156 26.507L32.3571 27.0251L32.1869 27.0792C32.0941 27.1024 28.3436 28.4325 23.8584 30.0333C19.3733 31.6263 15.6305 32.9486 15.5454 32.9641C15.4217 32.9873 14.919 32.3687 12.978 29.8399C11.648 28.1 10.2947 26.3446 9.97762 25.927L9.38991 25.1769H11.7872H14.1767L14.8881 26.2363ZM34.1898 31.8196C34.9708 33.8689 35.6127 35.5856 35.6127 35.6243C35.6127 35.6707 34.6538 35.6861 33.2 35.6784L30.7795 35.6552L28.7148 32.9873C27.578 31.518 26.6655 30.2885 26.6733 30.2421C26.6965 30.1647 32.5891 28.0381 32.6973 28.0613C32.736 28.0768 33.401 29.7626 34.1898 31.8196ZM26.7351 32.1753C27.3847 33.026 28.2586 34.1627 28.6761 34.7118L29.434 35.6939L20.3631 35.6861C14.5865 35.6861 11.3464 35.6552 11.4469 35.6088C11.7176 35.4851 25.4437 30.6055 25.4979 30.6132C25.5211 30.621 26.0778 31.3247 26.7351 32.1753Z" fill="#44DDE7"></path><path d="M17.4552 5.61243C16.6355 5.82895 16.0091 6.19241 15.3828 6.81105C13.2098 8.97631 13.7665 12.634 16.4808 14.0569C18.2594 14.9926 20.386 14.6678 21.8012 13.2372C22.3657 12.6727 22.7214 12.1005 22.9766 11.3349C23.1777 10.7394 23.1777 9.30109 22.9766 8.70565C22.59 7.56889 21.7316 6.5172 20.7882 6.01455C19.7751 5.48097 18.5378 5.32631 17.4552 5.61243ZM19.3653 6.62546C21.5769 7.12811 22.7214 9.62588 21.6852 11.6597C21.4687 12.0773 20.8114 12.7655 20.3938 13.013C18.0739 14.374 15.1198 12.6959 15.1198 10.0203C15.1198 8.45046 16.2798 6.98118 17.8032 6.62546C18.2053 6.53266 18.9554 6.52493 19.3653 6.62546Z" fill="#44DDE7"></path></svg>