<svg xmlns="http://www.w3.org/2000/svg" width="23" height="16" viewBox="0 0 23 16" fill="none"><path d="M1.6652 0.723058C0.866404 0.936749 0.245684 1.61852 0.0930473 2.44276C0.0167291 2.84979 0.0167291 13.7887 0.0879594 14.1805C0.260947 15.0963 1.00886 15.8188 1.91959 15.9612C2.13329 15.9918 5.49637 16.007 11.3576 15.9969L20.4649 15.9816L20.7498 15.8646C21.3705 15.6153 21.8234 15.1624 22.0828 14.5316L22.1948 14.2517L22.21 8.52786C22.2202 4.58475 22.21 2.70224 22.1693 2.48346C22.093 2.02555 21.8844 1.6287 21.5588 1.29799C21.2383 0.977452 20.989 0.829904 20.5565 0.71797C20.1189 0.606037 2.09258 0.611125 1.6652 0.723058ZM20.3835 1.53203C20.4191 1.56765 18.9284 2.91084 15.8248 5.65321C13.2859 7.89187 11.1846 9.7286 11.149 9.73877C11.0879 9.75404 1.90942 1.68975 1.86363 1.58291C1.85345 1.55747 1.91451 1.51677 1.99591 1.5015C2.26048 1.44554 20.3275 1.47606 20.3835 1.53203ZM4.24984 4.83406C5.76603 6.17726 7.00238 7.30168 6.99729 7.33221C6.98712 7.36274 5.63374 8.9298 3.98018 10.8072C2.001 13.0662 0.968162 14.2008 0.942723 14.1601C0.922371 14.1296 0.90202 11.489 0.90202 8.2989C0.90202 2.62592 0.907107 2.49364 1.00378 2.27486L1.10553 2.05608L1.29887 2.22398C1.40063 2.32065 2.72857 3.49595 4.24984 4.83406ZM21.3044 2.42241C21.3705 2.65645 21.3756 14.1093 21.3095 14.1449C21.2586 14.1805 15.2753 7.39326 15.2753 7.30677C15.2753 7.27624 16.593 6.09077 18.2008 4.66616C21.3807 1.85257 21.1874 1.99503 21.3044 2.42241ZM9.46492 9.43859C10.2434 10.1255 10.9353 10.7106 11.0065 10.736C11.0829 10.7665 11.1744 10.7665 11.2558 10.736C11.3271 10.7106 12.0953 10.0593 12.9654 9.29104C13.8405 8.52277 14.5731 7.89187 14.5935 7.89187C14.6189 7.89187 16.0232 9.46912 17.7124 11.3974C21.0653 15.2184 20.8618 14.9437 20.4446 15.081C20.2003 15.1675 2.06206 15.1675 1.81275 15.0861C1.42098 14.9538 1.26326 15.1675 4.59073 11.3822L7.67398 7.86135L7.86223 8.02416C7.96399 8.11574 8.68647 8.75173 9.46492 9.43859Z" fill="#FF5F55"></path></svg>