<svg xmlns="http://www.w3.org/2000/svg" width="39" height="38" viewBox="0 0 39 38" fill="none"><path d="M17.8493 7.16229C9.68013 6.74516 4.57071 11.7428 2.67578 13.9547C-3.00901 20.5907 1.52043 33.2444 5.59055 35.6994C7.95825 37.1274 13.6323 39.7945 19.0675 29.9727C24.3462 20.4337 34.873 26.0336 33.9421 19.7609C32.8734 12.5594 25.9704 7.57695 17.8493 7.16229Z" fill="white"></path><path d="M23.0792 0.771961C22.6164 0.906094 22.3146 1.08046 21.9122 1.46944C21.2952 2.05962 21.0069 2.81746 21.0873 3.62224C21.1142 3.86368 21.141 4.12523 21.1477 4.21242C21.1611 4.34655 20.7319 4.61481 17.3048 6.59324L13.4486 8.82652L13.1133 8.55155C12.9255 8.404 12.6103 8.20281 12.4091 8.11562C12.0872 7.96808 11.9463 7.94796 11.3025 7.94796C10.652 7.95466 10.5178 7.97478 10.1892 8.12903C8.82108 8.75945 8.20408 10.4093 8.83449 11.7573C9.18323 12.4883 9.79352 13.0382 10.4977 13.2461L10.766 13.3266V17.8401V22.3536L10.4977 22.4341C9.79352 22.642 9.18323 23.1919 8.83449 23.9229C8.20408 25.2776 8.81437 26.9006 10.1959 27.5512C10.5245 27.7054 10.652 27.7255 11.3025 27.7322C11.9933 27.7322 12.067 27.7188 12.4761 27.5243C12.7176 27.4103 13.0328 27.2091 13.1736 27.0817L13.4352 26.8537L17.2646 29.0601C19.3705 30.274 21.1142 31.2867 21.141 31.3135C21.1678 31.3337 21.1544 31.555 21.1075 31.8098C20.9532 32.7085 21.255 33.587 21.9256 34.2242C22.375 34.6534 22.7908 34.8613 23.3743 34.9619C25.1917 35.2704 26.8214 33.6273 26.5129 31.8098C26.466 31.555 26.4526 31.3337 26.4794 31.3135C26.5062 31.2867 28.0957 30.3612 30.0137 29.2546C31.9318 28.148 33.6554 27.1555 33.8365 27.0482L34.1785 26.847L34.4736 27.1018C34.8693 27.4439 35.0638 27.5042 35.332 27.3902C35.7143 27.2292 35.7076 26.7531 35.3119 26.4848C35.0235 26.2903 34.7016 25.8276 34.601 25.4587C34.4535 24.9088 34.6479 24.2515 35.0906 23.8089C35.4125 23.4803 35.7746 23.3395 36.291 23.3395C37.9677 23.3328 38.645 25.3715 37.3306 26.4513C37.1629 26.5921 37.0019 26.7732 36.9818 26.8671C36.8946 27.1957 37.3171 27.5579 37.6458 27.4372C37.9811 27.3097 38.4908 26.7531 38.7456 26.2367C38.9871 25.7471 39.0005 25.7002 39.0005 25.0563C39.0005 24.4393 38.9804 24.3387 38.7926 23.9363C38.4438 23.2053 37.8201 22.6353 37.1361 22.4341L36.8544 22.3536L36.8343 17.8468C36.8209 13.6016 36.8276 13.34 36.9349 13.3065C37.847 13.0114 38.3701 12.5822 38.7456 11.8176C38.9871 11.3281 39.0005 11.2811 39.0005 10.6373C39.0005 10.0136 38.9804 9.91968 38.7859 9.51058C38.2494 8.37047 37.1495 7.76688 35.9021 7.92113C35.4729 7.97478 34.7955 8.28999 34.4468 8.59849L34.1852 8.82652L31.6971 7.39131C30.3289 6.59994 28.6054 5.60738 27.8676 5.18486C27.1299 4.76235 26.5062 4.39349 26.4794 4.36667C26.4526 4.34655 26.466 4.12523 26.5129 3.87038C26.6068 3.30703 26.5196 2.73027 26.2514 2.18704C25.9965 1.66393 25.3527 1.06705 24.8363 0.872562C24.3266 0.67807 23.562 0.637833 23.0792 0.771961ZM24.5814 1.86513C24.8966 2.02608 25.2186 2.35471 25.3929 2.68333C25.4801 2.85099 25.5204 3.05889 25.5204 3.42105C25.5204 3.97769 25.4198 4.23254 25.0576 4.61481C24.7022 4.99708 24.3802 5.13121 23.8102 5.13121C23.2401 5.13121 22.9182 4.99708 22.5628 4.61481C22.2006 4.23254 22.1 3.97769 22.1 3.42105C22.1 2.8644 22.2006 2.60955 22.5628 2.22728C22.7707 1.99926 23.0322 1.8383 23.3407 1.73771C23.6157 1.64381 24.2931 1.71758 24.5814 1.86513ZM22.0195 5.47325C23.0188 6.37863 24.682 6.37192 25.6344 5.45312C25.7685 5.3257 25.9026 5.2251 25.9429 5.23852C25.9764 5.25193 27.7268 6.25791 29.8394 7.4785L33.6755 9.69166L33.6218 9.95992C33.5347 10.3958 33.5682 11.1403 33.6956 11.5158C33.9505 12.2804 34.601 12.9242 35.4259 13.226L35.8149 13.3668V17.8401V22.3134L35.4259 22.4542C34.601 22.756 33.9572 23.3931 33.6956 24.1644C33.5682 24.5332 33.5347 25.2709 33.6218 25.7203L33.6755 25.9885L29.8394 28.2017C27.7268 29.4156 25.9764 30.4283 25.9429 30.4417C25.9026 30.4551 25.7685 30.3545 25.6344 30.2271C24.6887 29.3083 23.0591 29.2882 22.0397 30.1868C21.8787 30.3277 21.7312 30.4484 21.711 30.4484C21.6976 30.4484 21.2751 30.2137 20.7855 29.932C20.2893 29.6436 18.5456 28.6376 16.9159 27.6987L13.9516 25.9885L13.9985 25.6867C14.0321 25.5191 14.0522 25.1905 14.0455 24.949C14.0321 23.8223 13.3212 22.87 12.1945 22.4542L11.8055 22.3134V17.8401V13.3668L12.1945 13.226C13.0194 12.9242 13.6699 12.2804 13.9248 11.5225C14.0455 11.1403 14.0857 10.4763 13.9985 9.99345L13.9516 9.69166L17.7877 7.47179C19.9003 6.2445 21.6574 5.24522 21.6909 5.23852C21.7245 5.23181 21.872 5.33911 22.0195 5.47325ZM37.1897 9.15513C38.075 9.67154 38.303 10.8586 37.6726 11.6835C37.0623 12.4816 35.7948 12.5755 35.0906 11.8713C34.7284 11.5091 34.5809 11.1604 34.5809 10.6306C34.5742 10.1008 34.715 9.75872 35.0839 9.39657C35.6338 8.84663 36.499 8.74604 37.1897 9.15513ZM12.0402 9.04783C13.1334 9.54411 13.3882 11.0128 12.5298 11.8713C12.0268 12.381 11.1952 12.495 10.5245 12.153C9.26371 11.5158 9.28383 9.67154 10.5648 9.08136C10.9873 8.88017 11.6445 8.86675 12.0402 9.04783ZM12.0402 23.4669C13.1334 23.9565 13.3882 25.4319 12.5365 26.2836C12.0201 26.8 11.1885 26.9207 10.5245 26.572C9.27041 25.9148 9.29053 24.0906 10.5648 23.5004C10.9873 23.2992 11.6445 23.2858 12.0402 23.4669ZM24.5814 30.7032C24.8966 30.8642 25.2186 31.1928 25.3929 31.5214C25.4801 31.6891 25.5204 31.897 25.5204 32.2592C25.5204 32.8158 25.4198 33.0706 25.0576 33.4529C24.7022 33.8352 24.3802 33.9693 23.8102 33.9693C23.2401 33.9693 22.9182 33.8352 22.5628 33.4529C22.2006 33.0706 22.1 32.8158 22.1 32.2592C22.1 31.7025 22.2006 31.4477 22.5628 31.0654C22.7707 30.8374 23.0322 30.6764 23.3407 30.5758C23.6157 30.4819 24.2931 30.5557 24.5814 30.7032Z" fill="#FF5F55"></path><path d="M23.3395 8.4316C23.1316 8.51207 16.1233 12.5762 15.9154 12.7305C15.7947 12.8177 15.6404 13.0189 15.5667 13.1731C15.4258 13.4481 15.4258 13.5554 15.4258 17.8275C15.4258 22.5891 15.4124 22.4483 15.8081 22.8372C15.9154 22.9512 17.6457 23.9908 19.6577 25.151L23.306 27.2635H23.809H24.312L27.9604 25.1577C29.9656 23.9975 31.6959 22.958 31.8032 22.8439C32.1654 22.4885 32.1922 22.3342 32.1922 20.8387C32.1922 19.4974 32.1922 19.4706 32.0379 19.3297C31.8434 19.1486 31.5886 19.1419 31.3807 19.3096C31.2197 19.437 31.2197 19.4638 31.1996 20.7515L31.1795 22.066L30.9649 22.2202C30.6497 22.455 24.4461 26.0228 24.3589 26.0228C24.2986 26.0228 24.2785 25.0169 24.2785 22.0794V18.1427L25.2442 17.586C25.774 17.2842 26.2301 17.0361 26.2502 17.0361C26.2703 17.0361 26.2904 17.6464 26.2904 18.3975C26.2904 19.8931 26.3038 19.9534 26.7062 20.1613C27.008 20.3156 27.1891 20.2552 28.242 19.6449C28.8993 19.2627 29.2279 19.0346 29.3151 18.8871C29.4291 18.6993 29.4425 18.5316 29.4425 16.9221V15.1717L30.3143 14.6687L31.1862 14.1657V15.7618C31.1862 17.4653 31.213 17.6397 31.5014 17.7671C31.7294 17.8744 31.8166 17.861 32.0178 17.7L32.1922 17.5659V15.5204C32.1922 13.2938 32.1788 13.2134 31.8032 12.8378C31.6959 12.7238 29.9589 11.6843 27.9536 10.5307L24.312 8.42489L23.8761 8.40477C23.6346 8.39806 23.3932 8.40477 23.3395 8.4316ZM27.3098 11.3154C29.1474 12.3817 30.6497 13.2603 30.6497 13.2804C30.6497 13.3005 30.2674 13.5353 29.8047 13.7968L28.9663 14.2864L25.5997 12.3348C23.7486 11.2618 22.2061 10.3631 22.1793 10.3363C22.1055 10.2625 23.6011 9.39063 23.8023 9.39063C23.8962 9.39063 25.4119 10.2222 27.3098 11.3154ZM25.7204 13.5688C26.9007 14.2529 27.8665 14.8363 27.8598 14.8699C27.853 14.8967 27.6116 15.0644 27.3165 15.232L26.7733 15.5472L24.8083 14.4071C23.7218 13.7767 22.233 12.9183 21.4953 12.489C20.7575 12.0665 20.1003 11.6776 20.0332 11.6373C19.9259 11.5635 19.9729 11.5166 20.496 11.2148L21.0794 10.8795L22.3269 11.6038C23.0109 11.9995 24.54 12.8847 25.7204 13.5688ZM22.3 14.1187C24.1443 15.1851 25.6734 16.0703 25.707 16.0972C25.7807 16.1575 23.9968 17.1702 23.809 17.1702C23.6749 17.1702 16.9683 13.3609 16.9683 13.2804C16.9683 13.2335 18.8663 12.147 18.9132 12.1671C18.9334 12.1805 20.4557 13.0591 22.3 14.1187ZM21.1264 16.8751L23.239 18.0957L23.2591 22.066C23.2725 25.2315 23.2591 26.0295 23.192 26.0027C23.0109 25.9357 16.6598 22.2471 16.5525 22.1532C16.4385 22.0526 16.4318 21.7709 16.4318 18.1024V14.159L17.7262 14.9101C18.4304 15.3192 19.9662 16.2045 21.1264 16.8751ZM28.4365 17.0696V18.3707L27.9738 18.6457C27.7122 18.7932 27.4574 18.934 27.4037 18.9542C27.3098 18.9877 27.2964 18.8468 27.2964 17.7L27.3031 16.399L27.853 16.0838C28.1548 15.9094 28.4097 15.7618 28.4231 15.7618C28.4298 15.7618 28.4365 16.352 28.4365 17.0696Z" fill="#FF5F55"></path></svg>