<svg xmlns="http://www.w3.org/2000/svg" width="36" height="33" viewBox="0 0 36 33" fill="none"><path d="M24.428 0.159651C23.9639 0.321414 23.5489 0.609775 23.3098 0.933302C23.0917 1.21463 22.7963 1.88982 22.7893 2.10785C22.7893 2.22741 21.6218 2.7549 15.3341 5.49785L7.8719 8.75422H5.52282C4.08101 8.75422 3.03307 8.78235 2.80097 8.83158C1.48576 9.10588 0.353418 10.2382 0.0791235 11.5534C-0.0263745 12.0669 -0.0263745 20.352 0.0791235 20.8654C0.353418 22.1806 1.48576 23.3129 2.80097 23.5872C3.03307 23.6365 4.08101 23.6646 5.52282 23.6646H7.8719L10.2913 24.7196C11.6206 25.3033 12.7951 25.7745 12.8936 25.7745C12.9991 25.7745 13.182 25.6901 13.3086 25.5706C13.5969 25.3104 13.6321 24.8954 13.3789 24.6281C13.2875 24.5297 12.2888 24.0584 10.9735 23.4817L8.72292 22.5041V16.2094V9.91469L9.41217 9.6193C9.78493 9.4505 12.1622 8.41662 14.6871 7.31241C17.219 6.2082 19.3149 5.30795 19.3501 5.30795C19.3852 5.30795 19.4134 7.55154 19.4134 10.7657V16.2235L19.6173 16.4274C19.8424 16.6525 20.1167 16.6947 20.4332 16.547C20.8341 16.3641 20.82 16.5681 20.82 10.3578V4.63276L21.7554 4.23187C22.2618 4.01384 22.7049 3.83098 22.7401 3.83098C22.7682 3.83098 22.7893 9.4083 22.7893 16.2164C22.7893 27.983 22.7823 28.6019 22.6697 28.5667C22.5994 28.5527 21.6992 28.1658 20.6723 27.7157C19.6384 27.2656 18.7101 26.8999 18.6116 26.8999C18.5131 26.8999 18.3303 26.9913 18.2037 27.1038C17.9153 27.3641 17.8801 27.779 18.1333 28.0463C18.2248 28.1447 19.2235 28.623 20.5317 29.1927L22.7752 30.1703L22.8174 30.4165C22.937 31.1268 23.4997 31.8442 24.1889 32.1677C24.5195 32.3225 24.6812 32.3506 25.1806 32.3506C25.9402 32.3506 26.4114 32.1396 26.9319 31.5769C27.6 30.8455 27.5367 32.3928 27.5367 16.2094C27.5367 2.57907 27.5297 1.95312 27.4101 1.59442C27.2413 1.11617 26.6927 0.518344 26.2004 0.279215C25.687 0.0260201 24.9415 -0.0232122 24.428 0.159651ZM25.7362 1.62959C25.8347 1.70695 25.9754 1.87575 26.0386 2.00938C26.1582 2.23444 26.1652 3.05733 26.1652 16.2094C26.1652 29.3615 26.1582 30.1844 26.0386 30.4094C25.68 31.1198 24.7516 31.1549 24.3366 30.4727C24.196 30.2406 24.196 30.0859 24.196 16.2094C24.196 2.33291 24.196 2.17818 24.3366 1.94608C24.639 1.44673 25.2861 1.29903 25.7362 1.62959ZM3.95441 14.3878L3.97551 18.6148L4.17244 18.7836C4.4397 19.0156 4.84763 19.0156 5.11489 18.7836L5.31182 18.6148L5.33292 14.3878L5.34699 10.1609H6.33163H7.31628V16.2164V22.265L5.15709 22.2439L2.99087 22.2228L2.58997 22.0259C2.13985 21.8008 1.80929 21.4632 1.59126 20.999C1.4506 20.6825 1.44356 20.577 1.42246 16.4204C1.4084 13.4876 1.42246 12.0528 1.47873 11.8066C1.68269 10.8501 2.54778 10.1679 3.56759 10.1609H3.94035L3.95441 14.3878Z" fill="#44DDE7"></path><path d="M29.3568 12.7628C29.0262 12.8965 28.8785 13.3536 29.0543 13.6983C29.0965 13.7826 29.6592 14.3805 30.2992 15.0275L31.4738 16.2091L30.2992 17.3836C29.6592 18.0377 29.0965 18.6356 29.0543 18.72C28.773 19.2756 29.3005 19.8734 29.9054 19.6905C29.9898 19.6624 30.6157 19.0927 31.2839 18.4386L32.4936 17.2359L33.7103 18.4386C34.4558 19.1841 34.9904 19.6624 35.117 19.6905C35.6515 19.8242 36.1086 19.367 35.975 18.8325C35.9469 18.72 35.4545 18.1573 34.7231 17.4258L33.5204 16.2091L34.7231 14.9924C35.4545 14.2609 35.9469 13.6983 35.975 13.5857C36.1086 13.0512 35.6515 12.594 35.117 12.7277C34.9904 12.7558 34.4558 13.2341 33.7033 13.9796L32.4936 15.1893L31.3472 14.0569C30.7212 13.431 30.1304 12.8683 30.032 12.805C29.8421 12.6855 29.5889 12.6644 29.3568 12.7628Z" fill="#44DDE7"></path><path d="M15.4131 25.7322C14.7801 26.0839 15.0615 27.0404 15.8 27.0404C16.0672 27.0404 16.4611 26.6254 16.4611 26.3371C16.4611 26.1753 16.3978 26.0417 16.2219 25.8729C15.9617 25.6127 15.7085 25.5705 15.4131 25.7322Z" fill="#44DDE7"></path></svg>