<svg xmlns="http://www.w3.org/2000/svg" width="35" height="36" viewBox="0 0 35 36" fill="none"><rect x="0.5" y="0.501465" width="34" height="34" rx="17" stroke="#DB66AB" stroke-dasharray="2 2"></rect><path d="M12.36 23.0015H21.252V21.5615H15.51L19.524 17.4755C20.016 16.9715 20.418 16.4015 20.73 15.7655C21.042 15.1295 21.198 14.4875 21.198 13.8395C21.198 13.4555 21.12 13.0535 20.964 12.6335C20.808 12.2135 20.568 11.8235 20.244 11.4635C19.92 11.0915 19.506 10.7915 19.002 10.5635C18.498 10.3235 17.898 10.2035 17.202 10.2035C16.338 10.2035 15.594 10.3955 14.97 10.7795C14.358 11.1515 13.89 11.6795 13.566 12.3635C13.242 13.0355 13.08 13.8215 13.08 14.7215H14.61C14.61 14.0855 14.712 13.5395 14.916 13.0835C15.12 12.6155 15.414 12.2615 15.798 12.0215C16.194 11.7695 16.662 11.6435 17.202 11.6435C17.586 11.6435 17.928 11.7095 18.228 11.8415C18.528 11.9735 18.78 12.1475 18.984 12.3635C19.2 12.5795 19.362 12.8195 19.47 13.0835C19.578 13.3475 19.632 13.6175 19.632 13.8935C19.632 14.2295 19.578 14.5535 19.47 14.8655C19.374 15.1655 19.224 15.4655 19.02 15.7655C18.828 16.0535 18.594 16.3475 18.318 16.6475L12.36 23.0015Z" fill="#4748FE"></path></svg>