<svg xmlns="http://www.w3.org/2000/svg" width="55" height="55" viewBox="0 0 55 55" fill="none"><circle cx="27.5" cy="27.5" r="27.5" fill="#1962F2"></circle><path d="M15.8299 27.6C15.8299 26.704 15.9179 25.88 16.0939 25.128C16.2699 24.376 16.5179 23.728 16.8379 23.184C17.1739 22.64 17.5739 22.224 18.0379 21.936C18.5019 21.632 19.0139 21.48 19.5739 21.48C20.1659 21.48 20.6859 21.632 21.1339 21.936C21.5979 22.224 21.9899 22.64 22.3099 23.184C22.6459 23.728 22.9019 24.376 23.0779 25.128C23.2539 25.88 23.3419 26.704 23.3419 27.6C23.3419 28.496 23.2539 29.32 23.0779 30.072C22.9019 30.824 22.6459 31.472 22.3099 32.016C21.9899 32.56 21.5979 32.984 21.1339 33.288C20.6859 33.576 20.1659 33.72 19.5739 33.72C19.0139 33.72 18.5019 33.576 18.0379 33.288C17.5739 32.984 17.1739 32.56 16.8379 32.016C16.5179 31.472 16.2699 30.824 16.0939 30.072C15.9179 29.32 15.8299 28.496 15.8299 27.6ZM13.0459 27.6C13.0459 29.344 13.3179 30.864 13.8619 32.16C14.4219 33.456 15.1899 34.464 16.1659 35.184C17.1579 35.904 18.2939 36.264 19.5739 36.264C20.8859 36.264 22.0299 35.904 23.0059 35.184C23.9979 34.464 24.7659 33.456 25.3099 32.16C25.8539 30.864 26.1259 29.344 26.1259 27.6C26.1259 25.856 25.8539 24.336 25.3099 23.04C24.7659 21.744 23.9979 20.736 23.0059 20.016C22.0299 19.296 20.8859 18.936 19.5739 18.936C18.2939 18.936 17.1579 19.296 16.1659 20.016C15.1899 20.736 14.4219 21.744 13.8619 23.04C13.3179 24.336 13.0459 25.856 13.0459 27.6ZM33.3739 27.768C34.5579 27.768 35.6059 27.592 36.5179 27.24C37.4459 26.888 38.1739 26.384 38.7019 25.728C39.2299 25.072 39.4939 24.32 39.4939 23.472C39.4939 22.64 39.2859 21.888 38.8699 21.216C38.4699 20.528 37.8859 19.976 37.1179 19.56C36.3499 19.144 35.4219 18.936 34.3339 18.936C33.3099 18.936 32.4059 19.144 31.6219 19.56C30.8379 19.96 30.2219 20.512 29.7739 21.216C29.3419 21.92 29.1259 22.736 29.1259 23.664H31.7899C31.7899 22.992 32.0299 22.44 32.5099 22.008C33.0059 21.56 33.6219 21.336 34.3579 21.336C34.8539 21.336 35.2699 21.432 35.6059 21.624C35.9419 21.816 36.1979 22.088 36.3739 22.44C36.5499 22.776 36.6379 23.168 36.6379 23.616C36.6379 23.968 36.5579 24.312 36.3979 24.648C36.2539 24.968 36.0379 25.248 35.7499 25.488C35.4779 25.728 35.1419 25.92 34.7419 26.064C34.3419 26.192 33.8859 26.256 33.3739 26.256V27.768ZM34.2139 36.288C35.3659 36.288 36.3739 36.088 37.2379 35.688C38.1019 35.288 38.7739 34.728 39.2539 34.008C39.7339 33.288 39.9739 32.456 39.9739 31.512C39.9739 30.664 39.8059 29.944 39.4699 29.352C39.1339 28.744 38.6619 28.256 38.0539 27.888C37.4619 27.504 36.7659 27.224 35.9659 27.048C35.1659 26.856 34.3019 26.76 33.3739 26.76V28.368C33.9339 28.368 34.4459 28.432 34.9099 28.56C35.3739 28.688 35.7659 28.872 36.0859 29.112C36.4219 29.352 36.6779 29.648 36.8539 30C37.0299 30.352 37.1179 30.752 37.1179 31.2C37.1179 31.76 36.9979 32.24 36.7579 32.64C36.5179 33.024 36.1819 33.32 35.7499 33.528C35.3339 33.736 34.8379 33.84 34.2619 33.84C33.7019 33.84 33.1899 33.736 32.7259 33.528C32.2619 33.304 31.8939 33 31.6219 32.616C31.3659 32.216 31.2379 31.744 31.2379 31.2H28.4059C28.4059 31.888 28.5419 32.544 28.8139 33.168C29.0859 33.776 29.4699 34.32 29.9659 34.8C30.4619 35.264 31.0699 35.632 31.7899 35.904C32.5099 36.16 33.3179 36.288 34.2139 36.288Z" fill="white"></path></svg>