<svg xmlns="http://www.w3.org/2000/svg" width="30" height="30" viewBox="0 0 30 30" fill="none"><rect width="30" height="30" rx="5" fill="#44DDE7"></rect><path d="M10.4284 22H20.0404V20.02H14.5684L18.1504 16.51C18.6664 16.03 19.0804 15.484 19.3924 14.872C19.7164 14.26 19.8784 13.624 19.8784 12.964C19.8784 12.544 19.7884 12.112 19.6084 11.668C19.4404 11.224 19.1764 10.816 18.8164 10.444C18.4684 10.072 18.0244 9.772 17.4844 9.544C16.9444 9.304 16.3084 9.184 15.5764 9.184C14.6164 9.184 13.8004 9.388 13.1284 9.796C12.4684 10.192 11.9644 10.744 11.6164 11.452C11.2804 12.148 11.1124 12.946 11.1124 13.846H13.2184C13.2184 13.294 13.3084 12.808 13.4884 12.388C13.6804 11.968 13.9504 11.65 14.2984 11.434C14.6464 11.206 15.0604 11.092 15.5404 11.092C15.8884 11.092 16.1944 11.152 16.4584 11.272C16.7224 11.38 16.9444 11.53 17.1244 11.722C17.3164 11.914 17.4544 12.13 17.5384 12.37C17.6344 12.598 17.6824 12.832 17.6824 13.072C17.6824 13.408 17.6284 13.726 17.5204 14.026C17.4124 14.326 17.2504 14.626 17.0344 14.926C16.8184 15.226 16.5604 15.538 16.2604 15.862L10.4284 22Z" fill="white"></path></svg>