<svg xmlns="http://www.w3.org/2000/svg" width="55" height="55" viewBox="0 0 55 55" fill="none"><circle cx="27.5" cy="27.5" r="27.5" fill="#1962F2"></circle><path d="M17.0604 27.6C17.0604 26.704 17.1484 25.88 17.3244 25.128C17.5004 24.376 17.7484 23.728 18.0684 23.184C18.4044 22.64 18.8044 22.224 19.2684 21.936C19.7324 21.632 20.2444 21.48 20.8044 21.48C21.3964 21.48 21.9164 21.632 22.3644 21.936C22.8284 22.224 23.2204 22.64 23.5404 23.184C23.8764 23.728 24.1324 24.376 24.3084 25.128C24.4844 25.88 24.5724 26.704 24.5724 27.6C24.5724 28.496 24.4844 29.32 24.3084 30.072C24.1324 30.824 23.8764 31.472 23.5404 32.016C23.2204 32.56 22.8284 32.984 22.3644 33.288C21.9164 33.576 21.3964 33.72 20.8044 33.72C20.2444 33.72 19.7324 33.576 19.2684 33.288C18.8044 32.984 18.4044 32.56 18.0684 32.016C17.7484 31.472 17.5004 30.824 17.3244 30.072C17.1484 29.32 17.0604 28.496 17.0604 27.6ZM14.2764 27.6C14.2764 29.344 14.5484 30.864 15.0924 32.16C15.6524 33.456 16.4204 34.464 17.3964 35.184C18.3884 35.904 19.5244 36.264 20.8044 36.264C22.1164 36.264 23.2604 35.904 24.2364 35.184C25.2284 34.464 25.9964 33.456 26.5404 32.16C27.0844 30.864 27.3564 29.344 27.3564 27.6C27.3564 25.856 27.0844 24.336 26.5404 23.04C25.9964 21.744 25.2284 20.736 24.2364 20.016C23.2604 19.296 22.1164 18.936 20.8044 18.936C19.5244 18.936 18.3884 19.296 17.3964 20.016C16.4204 20.736 15.6524 21.744 15.0924 23.04C14.5484 24.336 14.2764 25.856 14.2764 27.6ZM30.1164 23.136L34.0044 22.056V36H36.8124V18.936L30.1164 20.448V23.136Z" fill="white"></path></svg>