<svg xmlns="http://www.w3.org/2000/svg" width="55" height="55" viewBox="0 0 55 55" fill="none"><circle cx="27.5" cy="27.5" r="27.5" fill="#1962F2"></circle><path d="M16.1971 27.6C16.1971 26.704 16.2851 25.88 16.4611 25.128C16.6371 24.376 16.8851 23.728 17.2051 23.184C17.5411 22.64 17.9411 22.224 18.4051 21.936C18.8691 21.632 19.3811 21.48 19.9411 21.48C20.5331 21.48 21.0531 21.632 21.5011 21.936C21.9651 22.224 22.3571 22.64 22.6771 23.184C23.0131 23.728 23.2691 24.376 23.4451 25.128C23.6211 25.88 23.7091 26.704 23.7091 27.6C23.7091 28.496 23.6211 29.32 23.4451 30.072C23.2691 30.824 23.0131 31.472 22.6771 32.016C22.3571 32.56 21.9651 32.984 21.5011 33.288C21.0531 33.576 20.5331 33.72 19.9411 33.72C19.3811 33.72 18.8691 33.576 18.4051 33.288C17.9411 32.984 17.5411 32.56 17.2051 32.016C16.8851 31.472 16.6371 30.824 16.4611 30.072C16.2851 29.32 16.1971 28.496 16.1971 27.6ZM13.4131 27.6C13.4131 29.344 13.6851 30.864 14.2291 32.16C14.7891 33.456 15.5571 34.464 16.5331 35.184C17.5251 35.904 18.6611 36.264 19.9411 36.264C21.2531 36.264 22.3971 35.904 23.3731 35.184C24.3651 34.464 25.1331 33.456 25.6771 32.16C26.2211 30.864 26.4931 29.344 26.4931 27.6C26.4931 25.856 26.2211 24.336 25.6771 23.04C25.1331 21.744 24.3651 20.736 23.3731 20.016C22.3971 19.296 21.2531 18.936 19.9411 18.936C18.6611 18.936 17.5251 19.296 16.5331 20.016C15.5571 20.736 14.7891 21.744 14.2291 23.04C13.6851 24.336 13.4131 25.856 13.4131 27.6ZM27.8851 32.784H41.7091V30.336H38.2771L37.8691 30.552H32.0371L36.3331 24.264V31.512L36.1651 31.776V36H39.0691V19.2H37.3651L27.8851 32.784Z" fill="white"></path></svg>