<svg xmlns="http://www.w3.org/2000/svg" width="55" height="55" viewBox="0 0 55 55" fill="none"><circle cx="27.5" cy="27.5" r="27.5" fill="#1962F2"></circle><path d="M16.5018 27.6C16.5018 26.704 16.5898 25.88 16.7658 25.128C16.9418 24.376 17.1898 23.728 17.5098 23.184C17.8458 22.64 18.2458 22.224 18.7098 21.936C19.1738 21.632 19.6858 21.48 20.2458 21.48C20.8378 21.48 21.3578 21.632 21.8058 21.936C22.2698 22.224 22.6618 22.64 22.9818 23.184C23.3178 23.728 23.5738 24.376 23.7498 25.128C23.9258 25.88 24.0138 26.704 24.0138 27.6C24.0138 28.496 23.9258 29.32 23.7498 30.072C23.5738 30.824 23.3178 31.472 22.9818 32.016C22.6618 32.56 22.2698 32.984 21.8058 33.288C21.3578 33.576 20.8378 33.72 20.2458 33.72C19.6858 33.72 19.1738 33.576 18.7098 33.288C18.2458 32.984 17.8458 32.56 17.5098 32.016C17.1898 31.472 16.9418 30.824 16.7658 30.072C16.5898 29.32 16.5018 28.496 16.5018 27.6ZM13.7178 27.6C13.7178 29.344 13.9898 30.864 14.5338 32.16C15.0938 33.456 15.8618 34.464 16.8378 35.184C17.8298 35.904 18.9658 36.264 20.2458 36.264C21.5578 36.264 22.7018 35.904 23.6778 35.184C24.6698 34.464 25.4378 33.456 25.9818 32.16C26.5258 30.864 26.7978 29.344 26.7978 27.6C26.7978 25.856 26.5258 24.336 25.9818 23.04C25.4378 21.744 24.6698 20.736 23.6778 20.016C22.7018 19.296 21.5578 18.936 20.2458 18.936C18.9658 18.936 17.8298 19.296 16.8378 20.016C15.8618 20.736 15.0938 21.744 14.5338 23.04C13.9898 24.336 13.7178 25.856 13.7178 27.6ZM28.2378 36H41.0538V33.36H33.7578L38.5338 28.68C39.2218 28.04 39.7738 27.312 40.1898 26.496C40.6218 25.68 40.8378 24.832 40.8378 23.952C40.8378 23.392 40.7178 22.816 40.4778 22.224C40.2538 21.632 39.9018 21.088 39.4218 20.592C38.9578 20.096 38.3658 19.696 37.6458 19.392C36.9258 19.072 36.0778 18.912 35.1018 18.912C33.8218 18.912 32.7338 19.184 31.8378 19.728C30.9578 20.256 30.2858 20.992 29.8218 21.936C29.3738 22.864 29.1498 23.928 29.1498 25.128H31.9578C31.9578 24.392 32.0778 23.744 32.3178 23.184C32.5738 22.624 32.9338 22.2 33.3978 21.912C33.8618 21.608 34.4138 21.456 35.0538 21.456C35.5178 21.456 35.9258 21.536 36.2778 21.696C36.6298 21.84 36.9258 22.04 37.1658 22.296C37.4218 22.552 37.6058 22.84 37.7178 23.16C37.8458 23.464 37.9098 23.776 37.9098 24.096C37.9098 24.544 37.8378 24.968 37.6938 25.368C37.5498 25.768 37.3338 26.168 37.0458 26.568C36.7578 26.968 36.4138 27.384 36.0138 27.816L28.2378 36Z" fill="white"></path></svg>