<svg xmlns="http://www.w3.org/2000/svg" width="30" height="30" viewBox="0 0 30 30" fill="none"><rect width="30" height="30" rx="5" fill="#44DDE7"></rect><path d="M15.0305 15.826C15.9185 15.826 16.7045 15.694 17.3885 15.43C18.0845 15.166 18.6305 14.788 19.0265 14.296C19.4225 13.804 19.6205 13.24 19.6205 12.604C19.6205 11.98 19.4645 11.416 19.1525 10.912C18.8525 10.396 18.4145 9.982 17.8385 9.67C17.2625 9.358 16.5665 9.202 15.7505 9.202C14.9825 9.202 14.3045 9.358 13.7165 9.67C13.1285 9.97 12.6665 10.384 12.3305 10.912C12.0065 11.44 11.8445 12.052 11.8445 12.748H13.8425C13.8425 12.244 14.0225 11.83 14.3825 11.506C14.7545 11.17 15.2165 11.002 15.7685 11.002C16.1405 11.002 16.4525 11.074 16.7045 11.218C16.9565 11.362 17.1485 11.566 17.2805 11.83C17.4125 12.082 17.4785 12.376 17.4785 12.712C17.4785 12.976 17.4185 13.234 17.2985 13.486C17.1905 13.726 17.0285 13.936 16.8125 14.116C16.6085 14.296 16.3565 14.44 16.0565 14.548C15.7565 14.644 15.4145 14.692 15.0305 14.692V15.826ZM15.6605 22.216C16.5245 22.216 17.2805 22.066 17.9285 21.766C18.5765 21.466 19.0805 21.046 19.4405 20.506C19.8005 19.966 19.9805 19.342 19.9805 18.634C19.9805 17.998 19.8545 17.458 19.6025 17.014C19.3505 16.558 18.9965 16.192 18.5405 15.916C18.0965 15.628 17.5745 15.418 16.9745 15.286C16.3745 15.142 15.7265 15.07 15.0305 15.07V16.276C15.4505 16.276 15.8345 16.324 16.1825 16.42C16.5305 16.516 16.8245 16.654 17.0645 16.834C17.3165 17.014 17.5085 17.236 17.6405 17.5C17.7725 17.764 17.8385 18.064 17.8385 18.4C17.8385 18.82 17.7485 19.18 17.5685 19.48C17.3885 19.768 17.1365 19.99 16.8125 20.146C16.5005 20.302 16.1285 20.38 15.6965 20.38C15.2765 20.38 14.8925 20.302 14.5445 20.146C14.1965 19.978 13.9205 19.75 13.7165 19.462C13.5245 19.162 13.4285 18.808 13.4285 18.4H11.3045C11.3045 18.916 11.4065 19.408 11.6105 19.876C11.8145 20.332 12.1025 20.74 12.4745 21.1C12.8465 21.448 13.3025 21.724 13.8425 21.928C14.3825 22.12 14.9885 22.216 15.6605 22.216Z" fill="white"></path></svg>