<svg xmlns="http://www.w3.org/2000/svg" width="41" height="37" viewBox="0 0 41 37" fill="none"><path d="M11.1549 5.92827L0.640625 11.5097V18.965V26.4203L0.864844 26.5164C1.88184 26.9888 20.3398 34.9646 20.46 34.9886C20.5641 35.0126 21.2127 34.6523 22.3258 33.9396L24.0395 32.8665L24.4559 33.355C25.649 34.7724 27.5629 35.8294 29.4928 36.1337C30.4537 36.2939 32.0553 36.1978 32.9521 35.9415C35.915 35.0767 38.1172 32.8025 38.8539 29.8396C38.998 29.263 39.0301 28.8947 39.0301 27.9257C39.0301 26.5484 38.8779 25.7636 38.3814 24.6105C38.2213 24.2341 38.1252 23.9218 38.1652 23.9058C38.2053 23.8898 38.7098 23.5775 39.2783 23.2091L40.3193 22.5365V15.0732V7.6019L37.9971 6.68901C36.7238 6.19252 34.2734 5.22358 32.5518 4.54291C26.5459 2.1726 21.8293 0.338812 21.7492 0.338812C21.7012 0.34682 16.9285 2.85327 11.1549 5.92827ZM24.7682 2.87729C25.9533 3.34174 26.8902 3.75014 26.8502 3.78217C26.8182 3.82221 22.9104 6.24858 18.1697 9.18745L9.54531 14.5206L6.20605 13.1833C4.37227 12.4466 2.89883 11.822 2.93887 11.782C2.97891 11.7419 7.23906 9.46772 12.4121 6.71303L21.8213 1.71616L22.2217 1.87631C22.4459 1.95639 23.591 2.41284 24.7682 2.87729ZM29.2285 4.631C29.6449 4.79116 30.0213 4.95131 30.0533 4.98334C30.1174 5.0394 12.9326 15.7378 12.7645 15.7378C12.6363 15.7378 11.1309 15.1292 11.1309 15.0812C11.1389 15.0331 28.3477 4.35873 28.4277 4.34272C28.4518 4.34272 28.8121 4.47084 29.2285 4.631ZM34.9701 6.8812C36.7479 7.57788 38.1973 8.16245 38.1973 8.18647C38.1973 8.22651 20.8764 18.6447 20.5721 18.7888C20.452 18.8449 19.7152 18.5886 17.3369 17.6357C15.6393 16.955 14.2699 16.3865 14.2939 16.3705C14.39 16.2744 31.5988 5.63198 31.6709 5.62397C31.7189 5.62397 33.2004 6.18452 34.9701 6.8812ZM39.0781 15.5056V21.7837L38.2293 22.3203L37.3885 22.8488L36.852 22.2722C35.0982 20.3744 32.4957 19.3814 29.9492 19.6456C26.4338 20.006 23.599 22.4324 22.6861 25.8757C22.502 26.5484 22.4779 26.8046 22.4779 27.9257C22.4779 29.3351 22.574 29.8636 23.0705 31.1128C23.2146 31.4652 23.2947 31.7695 23.2547 31.8015C23.1346 31.9056 21.2287 33.0908 21.1807 33.0908C21.1566 33.0908 21.1486 30.1279 21.1566 26.5083L21.1807 19.9259L30.0693 14.5847C34.9621 11.6458 38.982 9.23549 39.0221 9.23549C39.0541 9.22748 39.0781 12.0542 39.0781 15.5056ZM8.96875 17.7238C8.96875 19.7578 8.96875 19.7898 9.15293 19.982C9.36914 20.2222 12.4922 21.4794 12.8686 21.4794C13.0447 21.4794 13.1729 21.4154 13.285 21.2712C13.4451 21.071 13.4531 20.9589 13.4531 19.2613C13.4531 17.8519 13.4771 17.4675 13.5572 17.4996C16.1437 18.5246 19.7553 19.982 19.8033 20.03C19.8354 20.0621 19.8514 23.065 19.8434 26.7005L19.8193 33.307L10.8906 29.4392L1.96191 25.5714L1.93789 19.2132L1.92187 12.847L5.44531 14.2564L8.96875 15.6658V17.7238ZM11.6354 16.7468L12.1719 16.955V18.4124C12.1719 19.2212 12.1398 19.8779 12.1078 19.8779C12.0758 19.8779 11.6514 19.7177 11.1709 19.5255L10.29 19.1732L10.266 17.6837L10.25 16.1943L10.6664 16.3624C10.8986 16.4585 11.3311 16.6267 11.6354 16.7468ZM32.4076 21.0871C33.7129 21.3833 34.85 22.048 35.851 23.105C38.0531 25.4433 38.4055 28.7746 36.7479 31.5933C36.3475 32.282 35.1543 33.4912 34.4977 33.8755C33.1363 34.6763 31.9672 34.9726 30.4377 34.9085C28.5238 34.8285 26.9543 34.1158 25.657 32.7624C22.558 29.4953 23.2867 24.1781 27.1545 21.8718C28.74 20.9269 30.5418 20.6546 32.4076 21.0871Z" fill="#44DDE7"></path><path d="M2.5625 22.1521V22.7287L4.10801 23.3453C4.95684 23.6816 5.67754 23.9619 5.70957 23.9619C5.7416 23.9619 5.76562 23.7137 5.76562 23.4094V22.8568L4.16406 22.2162L2.5625 21.5756V22.1521Z" fill="#44DDE7"></path><path d="M2.5625 24.1461V24.7226L4.02793 25.2992C4.82871 25.6195 5.54941 25.8998 5.62949 25.9318C5.75762 25.9798 5.77363 25.9318 5.74961 25.4033L5.72559 24.8267L4.48438 24.3302C3.80371 24.058 3.09102 23.7697 2.90684 23.6976L2.5625 23.5615V24.1461Z" fill="#44DDE7"></path><path d="M31.9831 27.3332C30.5817 28.9107 29.4126 30.208 29.3886 30.208C29.3646 30.208 28.6519 29.6474 27.795 28.9667C26.9462 28.2861 26.2175 27.7255 26.1774 27.7255C26.1454 27.7255 25.9452 27.9257 25.745 28.182C25.4407 28.5503 25.3927 28.6464 25.4808 28.7345C25.753 28.9988 29.5167 31.9697 29.5567 31.9457C29.6128 31.9216 35.4745 25.3392 35.4745 25.2992C35.4745 25.2832 35.2663 25.083 35.0021 24.8587L34.5376 24.4503L31.9831 27.3332Z" fill="#44DDE7"></path></svg>