<svg xmlns="http://www.w3.org/2000/svg" width="18" height="20" viewBox="0 0 18 20" fill="none"><path d="M14.0301 0.827066C12.7594 1.06767 11.7105 2.04511 11.3684 3.30827C11.2143 3.8609 11.2632 4.81203 11.4624 5.32331C11.4812 5.36466 10.8647 5.75564 8.73684 7.03383C7.22556 7.93985 5.96617 8.68797 5.93985 8.69549C5.91353 8.70301 5.80451 8.6203 5.69549 8.51504C5.30451 8.13158 4.77444 7.83835 4.18797 7.68045C3.74812 7.56015 2.96241 7.56391 2.5188 7.68421C1.34962 8 0.409774 8.93985 0.0902256 10.1128C-0.0300752 10.5451 -0.0300752 11.3722 0.0902256 11.8045C0.609023 13.7068 2.58647 14.7744 4.44361 14.1541C5 13.9699 5.64662 13.5263 5.96617 13.109C6.03383 13.0226 6.10526 12.9511 6.12406 12.9511C6.14286 12.9511 7.34211 13.5526 8.78571 14.2895C10.8045 15.3195 11.4098 15.6429 11.391 15.688C11.3797 15.718 11.3421 15.8985 11.312 16.0865C11.015 17.7707 12.109 19.4511 13.797 19.9098C14.2293 20.0301 15.0564 20.0301 15.4887 19.9098C16.4323 19.6541 17.2481 18.985 17.6692 18.1203C17.9323 17.5865 18 17.282 18 16.6353C18 15.9887 17.9323 15.6842 17.6692 15.1504C16.8195 13.4135 14.6466 12.7368 12.9887 13.6992C12.6353 13.9023 12.2256 14.2368 12.0677 14.4511C12.0075 14.5338 11.9398 14.6053 11.9211 14.6053C11.9023 14.6053 10.703 14 9.25564 13.2632L6.62782 11.9248L6.65038 11.7895C6.7782 10.9586 6.76316 10.5113 6.59399 9.96617C6.54887 9.81203 6.53008 9.69549 6.54887 9.67669C6.56767 9.65789 7.81955 8.8985 9.32707 7.99248L12.0677 6.34586L12.2895 6.56767C12.6955 6.97744 13.2143 7.26692 13.8195 7.43233C14.2594 7.55263 15.0451 7.54887 15.4887 7.42857C16.4286 7.17293 17.2481 6.5 17.6692 5.6391C17.9323 5.10526 18 4.79699 18 4.15413C18 3.51128 17.9323 3.20301 17.6692 2.66917C17.2481 1.80451 16.4173 1.12406 15.4887 0.883459C15.0902 0.778194 14.4248 0.751879 14.0301 0.827066ZM15.1128 1.95489C16.1278 2.16917 16.8985 3.11654 16.8985 4.15413C16.8985 5.37218 15.8609 6.40977 14.6429 6.40977C13.6053 6.40977 12.6579 5.6391 12.4436 4.62406C12.282 3.85714 12.5038 3.13158 13.0602 2.57143C13.6203 2.01128 14.3459 1.79323 15.1128 1.95489ZM3.83459 8.7594C4.84962 8.97368 5.6203 9.92105 5.6203 10.9586C5.6203 12.1767 4.58271 13.2143 3.36466 13.2143C2.32707 13.2143 1.3797 12.4436 1.16541 11.4286C1.00376 10.6617 1.22556 9.93609 1.78195 9.37594C2.34211 8.81579 3.06767 8.59774 3.83459 8.7594ZM15.1128 14.4361C16.1278 14.6504 16.8985 15.5977 16.8985 16.6353C16.8985 17.8534 15.8609 18.891 14.6429 18.891C13.6053 18.891 12.6579 18.1203 12.4436 17.1053C12.282 16.3383 12.5038 15.6128 13.0602 15.0526C13.6203 14.4925 14.3459 14.2744 15.1128 14.4361Z" fill="#FF5F55"></path></svg>