<svg xmlns="http://www.w3.org/2000/svg" width="40" height="38" viewBox="0 0 40 38" fill="none"><path d="M17.8493 7.1618C9.68013 6.74467 4.57071 11.7423 2.67578 13.9543C-3.00901 20.5902 1.52043 33.244 5.59055 35.6989C7.95825 37.1269 13.6323 39.794 19.0675 29.9722C24.3462 20.4332 34.873 26.0331 33.9421 19.7605C32.8734 12.5589 25.9704 7.57647 17.8493 7.1618Z" fill="white"></path><path d="M31.2307 0.788559C29.6052 1.07708 28.1414 1.84412 26.9733 3.01228C24.7636 5.24304 24.2077 8.55048 25.5377 11.5342C25.9881 12.5405 26.9029 13.6383 27.9444 14.4265C28.254 14.6657 28.5496 14.905 28.5988 14.9683C28.7255 15.1231 29.2955 16.0943 30.4778 18.1702L31.5122 19.9998L30.9141 20.5628C30.5833 20.8724 29.6826 21.731 28.9155 22.4769L27.5151 23.821L27.2407 23.6099C26.2133 22.8288 24.8621 22.7021 23.7573 23.2791C23.3421 23.4973 22.9903 23.7999 22.7018 24.1658L22.5258 24.398L19.8306 22.7936C17.2199 21.2454 17.1424 21.1891 17.1424 20.978C17.1424 20.3939 16.7343 19.4932 16.2347 18.9935C15.5802 18.3391 14.8765 18.0435 13.9406 18.0365C12.9061 18.0365 12.0194 18.4658 11.4142 19.268C10.9287 19.9084 10.7809 20.3587 10.7809 21.1962C10.7739 22.0265 10.8865 22.4276 11.3017 23.0188L11.5761 23.4128L9.85201 26.0377C8.89497 27.4732 8.11385 28.6625 8.09977 28.6766C8.09274 28.6836 7.90977 28.6696 7.69866 28.6344C6.69235 28.4796 5.67197 28.8173 4.92604 29.5633C3.25121 31.2451 3.94788 34.1092 6.21383 34.8341C8.31792 35.5167 10.3868 33.9966 10.3868 31.7729C10.3868 30.8651 10.0702 30.1192 9.42979 29.4999L9.11312 29.1973L10.7387 26.7484C11.6324 25.4043 12.3924 24.2573 12.4206 24.201C12.4628 24.1236 12.5543 24.1306 12.9202 24.2573C14.3487 24.7358 15.9954 24.1025 16.7343 22.7936C16.8539 22.5965 16.9524 22.4276 16.9665 22.4276C16.9806 22.4276 18.1276 23.1032 19.514 23.9265L22.0332 25.4254L22.0403 26.0236C22.0543 27.0088 22.3147 27.6703 22.9551 28.3388C24.7918 30.267 28.0288 29.1973 28.4159 26.5303C28.4933 25.9955 28.4511 25.6225 28.2259 24.9188C28.1907 24.7921 28.5355 24.4262 30.4566 22.5684C31.7092 21.358 32.8422 20.2954 32.983 20.2039C33.3207 19.9928 33.3348 19.9717 34.6296 17.6776C36.1426 14.9824 36.1778 14.9331 36.8182 14.4757C38.5634 13.2231 39.6964 11.2949 39.9497 9.12049C40.386 5.35564 37.9441 1.86523 34.1863 0.887077C33.4615 0.697075 32.0259 0.647816 31.2307 0.788559ZM33.8274 1.91449C35.6078 2.27338 37.3671 3.64562 38.2256 5.34156C39.0278 6.93195 39.1475 8.69122 38.5775 10.4083C38.1412 11.6961 37.346 12.7657 36.1567 13.6453C35.7978 13.9128 35.4037 14.2716 35.2841 14.4405C35.1574 14.6165 34.51 15.7283 33.8345 16.9246C33.1659 18.1139 32.5678 19.1343 32.5115 19.1906C32.427 19.2821 32.3989 19.2821 32.3074 19.1906C32.2511 19.1343 31.6389 18.0717 30.9352 16.8402C30.2385 15.6017 29.584 14.4898 29.4855 14.3561C29.387 14.2294 29.0281 13.9128 28.6833 13.6665C27.1211 12.5194 26.1992 10.9994 25.9459 9.16974C25.6925 7.38232 26.1851 5.5949 27.297 4.25785C27.9725 3.44154 28.5777 2.94895 29.4926 2.49857C30.8648 1.80894 32.3285 1.61893 33.8274 1.91449ZM14.2995 19.1976C15.3761 19.3806 16.0869 20.3165 16.0024 21.4073C15.911 22.4628 15.1439 23.1947 14.0391 23.258C13.5676 23.2862 13.448 23.2651 13.1243 23.1173C12.6669 22.9062 12.2728 22.5262 12.0617 22.0828C11.8435 21.6395 11.8365 20.8443 12.0546 20.3798C12.322 19.7817 12.8991 19.3102 13.5043 19.1906C13.6661 19.1624 13.8139 19.1343 13.828 19.1272C13.842 19.1202 14.0602 19.1554 14.2995 19.1976ZM26.1288 24.2503C27.1633 24.778 27.5925 25.9251 27.1281 26.9314C26.8818 27.4521 26.6566 27.7055 26.2062 27.9518C25.8755 28.1347 25.7629 28.1558 25.2703 28.1558C24.6018 28.1488 24.3062 28.0362 23.8488 27.614C23.4055 27.2058 23.1944 26.7414 23.1944 26.1503C23.1944 25.8969 23.2295 25.5803 23.2788 25.4466C23.4758 24.8554 23.9966 24.3488 24.6159 24.1447C25.0381 24.011 25.7559 24.0532 26.1288 24.2503ZM8.04348 29.9151C9.092 30.4077 9.54942 31.6322 9.06386 32.6666C8.50793 33.8348 7.12865 34.2218 6.05901 33.504C4.93308 32.7581 4.82048 31.1818 5.82679 30.274C6.24198 29.901 6.62198 29.7603 7.22014 29.7533C7.56495 29.7462 7.76903 29.7885 8.04348 29.9151Z" fill="#FF5F55"></path><path d="M31.3583 3.11153C29.226 3.58301 27.6849 5.13821 27.2416 7.24231C26.8475 9.10714 27.5864 11.1831 29.0853 12.4005C29.592 12.8157 30.6123 13.3083 31.2668 13.449C32.5546 13.7305 34.0183 13.4913 35.1442 12.8016C35.7846 12.4146 36.0731 12.119 36.0731 11.8516C36.0731 11.5701 36.0168 11.4857 35.7635 11.352C35.5172 11.2253 35.3976 11.2675 34.7853 11.6827C34.0464 12.1894 33.2583 12.4357 32.3716 12.4357C31.7312 12.4357 31.2598 12.3231 30.5842 11.9994C29.2753 11.3731 28.3886 10.0571 28.2831 8.58639C28.1775 7.1086 28.8601 5.70822 30.0916 4.8708C30.8446 4.35709 31.4779 4.16709 32.4138 4.16709C33.3498 4.16709 33.9831 4.35709 34.7361 4.8708C36.2491 5.89822 36.9105 7.80528 36.3617 9.55048C36.1717 10.1416 36.1787 10.2964 36.3898 10.5005C36.615 10.7327 36.9387 10.7327 37.1498 10.5075C37.4876 10.1486 37.7339 8.93121 37.6706 7.97417C37.5931 6.8623 37.2483 5.93341 36.5657 5.03969C35.9183 4.18117 34.8628 3.47042 33.7861 3.1819C33.1879 3.02005 31.9283 2.98486 31.3583 3.11153Z" fill="#FF5F55"></path></svg>