<svg xmlns="http://www.w3.org/2000/svg" width="38" height="32" viewBox="0 0 38 32" fill="none"><path d="M5.90234 0.740695C5.59062 0.874289 4.49961 2.05437 3.70547 3.10085C1.84258 5.57976 0.647656 8.40007 0.172656 11.4727C-0.00546875 12.6602 -0.00546875 15.1911 0.172656 16.3712C0.766406 20.1712 2.45859 23.6149 5.09336 26.3833C5.55352 26.8657 5.81328 27.0809 6.01367 27.1403C6.74844 27.363 7.42383 26.8583 7.42383 26.0938C7.42383 25.693 7.36445 25.5891 6.65195 24.795C5.39023 23.3923 4.61094 22.2567 3.89844 20.7872C2.65898 18.2489 2.16914 15.8219 2.31016 13.0016C2.50312 9.33523 4.06914 5.79499 6.82266 2.84851C7.35703 2.2696 7.42383 2.14343 7.42383 1.7278C7.42383 0.948507 6.61484 0.428976 5.90234 0.740695Z" fill="#44DDE7"></path><path d="M31.1719 0.770424C30.8082 0.948549 30.5781 1.32706 30.5781 1.72785C30.5781 2.15089 30.6375 2.24738 31.35 3.04894C32.6117 4.45167 33.391 5.58722 34.1035 7.05675C35.2168 9.33527 35.7066 11.4431 35.7066 13.922C35.7066 17.9446 34.2742 21.5443 31.3871 24.7579C30.6375 25.5966 30.5781 25.6931 30.5781 26.0939C30.5781 26.8212 31.1719 27.3036 31.8918 27.17C32.5375 27.0513 34.4598 24.7579 35.625 22.7318C36.716 20.8318 37.4805 18.6126 37.8293 16.3712C38.0074 15.1837 38.0074 12.6603 37.8293 11.4728C37.2504 7.7173 35.5508 4.25128 32.9457 1.49035C32.1293 0.629409 31.7508 0.473549 31.1719 0.770424Z" fill="#44DDE7"></path><path d="M9.24059 4.11766C8.58746 4.41454 7.02145 6.50008 6.27926 8.05868C5.64098 9.40946 5.29957 10.5598 5.07691 12.0665C4.90621 13.2466 4.95816 15.3321 5.19566 16.4825C5.67809 18.8946 6.77652 21.1286 8.37965 22.9544C9.04762 23.7114 9.41871 23.9266 9.90855 23.8376C10.2796 23.7634 10.6656 23.3997 10.7695 23.0286C10.8957 22.561 10.7695 22.2641 10.1238 21.5591C8.57262 19.8372 7.57809 17.7071 7.28121 15.4583C7.1773 14.7087 7.1773 13.1352 7.28121 12.3856C7.57809 10.1591 8.59488 7.96219 10.0941 6.32196C10.391 6.00282 10.6804 5.6243 10.7398 5.47587C10.955 4.96376 10.6582 4.30321 10.1164 4.08055C9.79723 3.94696 9.59684 3.95438 9.24059 4.11766Z" fill="#44DDE7"></path><path d="M27.873 4.08055C27.3386 4.31063 27.0566 4.97118 27.2644 5.47586C27.3237 5.61688 27.6132 5.9954 27.9026 6.32196C29.4167 7.99188 30.4261 10.1516 30.723 12.3856C30.8269 13.1352 30.8269 14.7087 30.723 15.4583C30.4187 17.7145 29.4019 19.8891 27.8507 21.5813C27.2421 22.2419 27.1085 22.561 27.2347 23.0286C27.3386 23.3997 27.7245 23.7634 28.0956 23.8376C28.5855 23.9266 28.9565 23.7114 29.6245 22.9544C31.2351 21.1212 32.3261 18.902 32.8233 16.4454C32.9718 15.7032 32.994 15.3766 32.994 13.922C32.994 12.4673 32.9718 12.1407 32.8233 11.3985C32.3261 8.94188 31.2351 6.72274 29.6245 4.89696C28.8601 4.0286 28.437 3.83563 27.873 4.08055Z" fill="#44DDE7"></path><path d="M12.5076 7.52434C12.0252 7.82122 11.1049 9.00872 10.6225 9.97356C10.2811 10.649 9.89513 11.8587 9.79122 12.5786C9.66505 13.447 9.74669 15.2802 9.93224 16.0001C10.333 17.4993 11.0084 18.7759 11.9584 19.815C12.4111 20.3122 12.6561 20.4532 13.0643 20.4532C13.7916 20.4532 14.2963 19.8298 14.1404 19.1173C14.1108 18.9911 13.9252 18.6943 13.7174 18.4642C12.9678 17.6107 12.5522 16.8907 12.2033 15.8517C12.0029 15.2579 11.9955 15.1466 11.9955 13.922C11.9955 12.6974 12.0029 12.5861 12.2033 11.9923C12.5522 10.9532 12.9678 10.2333 13.7174 9.37981C14.2369 8.79348 14.3111 8.26653 13.9475 7.80637C13.6209 7.39075 12.9455 7.25715 12.5076 7.52434Z" fill="#44DDE7"></path><path d="M24.3664 7.53915C23.6836 7.95477 23.6539 8.65985 24.2847 9.37235C25.4796 10.7306 26.0511 12.2001 26.0511 13.922C26.0511 15.6438 25.5242 17.0169 24.3367 18.3974C23.8839 18.9169 23.7726 19.2212 23.8617 19.6294C24.0101 20.3196 24.8933 20.6833 25.5019 20.3122C26.0734 19.9634 27.157 18.4419 27.6097 17.3583C28.0253 16.3563 28.2109 15.488 28.2554 14.3227C28.3148 12.727 28.0773 11.4727 27.4687 10.1665C26.9714 9.10516 25.9472 7.75438 25.45 7.50204C25.1531 7.34618 24.6484 7.36102 24.3664 7.53915Z" fill="#44DDE7"></path><path d="M17.9773 9.6915C16.6414 10.0403 15.5801 11.0349 15.1273 12.3485C14.8898 13.0536 14.8898 14.1966 15.1273 14.9017C15.543 16.104 16.5746 17.1282 17.7621 17.5142C17.8809 17.5513 17.8883 17.9298 17.8883 24.0306V30.5099L18.059 30.7993C18.482 31.5415 19.5211 31.5415 19.9441 30.7993L20.1148 30.5099V24.0306C20.1148 17.9298 20.1223 17.5513 20.2484 17.5142C20.7086 17.3583 21.3691 16.9724 21.7402 16.6235C23.1059 15.3618 23.4547 13.4247 22.6234 11.7548C22.3414 11.1907 21.5027 10.3298 20.9535 10.0403C20.4414 9.77314 19.5285 9.54307 18.9719 9.55049C18.7195 9.55049 18.2742 9.61729 17.9773 9.6915ZM19.6324 11.8958C19.8477 11.9626 20.1223 12.1407 20.3004 12.3263C21.1688 13.1946 20.9758 14.6122 19.907 15.2356C19.6102 15.4138 19.4766 15.4435 19.0016 15.4435C18.5266 15.4435 18.393 15.4138 18.0961 15.2356C16.159 14.1001 17.5023 11.1685 19.6324 11.8958Z" fill="#44DDE7"></path></svg>